<svg xmlns="http://www.w3.org/2000/svg" xmlns:xlink="http://www.w3.org/1999/xlink" xmlns:lucid="lucid" width="1101" height="601"><g transform="translate(-79.5 -79.49999999999994)" lucid:page-tab-id="SwSqMs2wavKT"><path d="M840 108a8 8 0 0 1 8-8h304a8 8 0 0 1 8 8v164a8 8 0 0 1-8 8H848a8 8 0 0 1-8-8z" stroke="#333" fill="#f2f3f5"/><use xlink:href="#a" transform="matrix(1,0,0,1,844.9999999999999,105) translate(135.55 14.4)"/><path d="M500 108a8 8 0 0 1 8-8h304a8 8 0 0 1 8 8v164a8 8 0 0 1-8 8H508a8 8 0 0 1-8-8z" stroke="#333" fill="#f2f3f5"/><use xlink:href="#b" transform="matrix(1,0,0,1,505,105) translate(116.57499999999999 14.4)"/><path d="M100 488a8 8 0 0 1 8-8h324a8 8 0 0 1 8 8v164a8 8 0 0 1-8 8H108a8 8 0 0 1-8-8z" stroke="#333" fill="#f2f3f5"/><path d="M100 488a8 8 0 0 1 8-8h324a8 8 0 0 1 8 8v14.23a8 8 0 0 1-8 8H108a8 8 0 0 1-8-8z" stroke="#000" stroke-opacity="0" fill="#fff" fill-opacity="0"/><use xlink:href="#c" transform="matrix(1,0,0,1,105.00000000000006,485.00000000000057) translate(0 21.511111111111106)"/><use xlink:href="#d" transform="matrix(1,0,0,1,105.00000000000006,485.00000000000057) translate(96.87469135802468 21.511111111111106)"/><use xlink:href="#e" transform="matrix(1,0,0,1,105.00000000000006,485.00000000000057) translate(131.158024691358 21.511111111111106)"/><path d="M100 297.77a8 8 0 0 1 8-8h324a8 8 0 0 1 8 8v164a8 8 0 0 1-8 8H108a8 8 0 0 1-8-8zM100 108a8 8 0 0 1 8-8h324a8 8 0 0 1 8 8v164a8 8 0 0 1-8 8H108a8 8 0 0 1-8-8z" stroke="#333" fill="#f2f3f5"/><path d="M100 108a8 8 0 0 1 8-8h504a8 8 0 0 1 8 8v14.23a8 8 0 0 1-8 8H108a8 8 0 0 1-8-8z" stroke="#000" stroke-opacity="0" fill="#fff" fill-opacity="0"/><use xlink:href="#f" transform="matrix(1,0,0,1,105,104.99999999999994) translate(0 21.511111111111106)"/><use xlink:href="#g" transform="matrix(1,0,0,1,105,104.99999999999994) translate(98.29382716049382 21.511111111111106)"/><path d="M100 297.77a8 8 0 0 1 8-8h324a8 8 0 0 1 8 8v12.77a8 8 0 0 1-8 8H108a8 8 0 0 1-8-8z" stroke="#000" stroke-opacity="0" fill="#fff" fill-opacity="0"/><use xlink:href="#h" transform="matrix(1,0,0,1,105,294.76863753213377) translate(0 21.511111111111106)"/><use xlink:href="#i" transform="matrix(1,0,0,1,105,294.76863753213377) translate(127.57283950617283 21.511111111111106)"/><path d="M365.9 570.78l-15.87-27.28c-1.24-2.2-3.4-3.43-5.94-3.5h-31.63c-2.54.07-4.7 1.3-5.94 3.5l-15.88 27.2c-1.24 2.14-1.24 4.6 0 6.8l15.88 27.42c1.24 2.27 3.32 3.57 5.94 3.64h31.62c2.53-.07 4.7-1.37 5.93-3.64l15.88-27.2c1.25-2.28 1.25-4.74 0-6.94z" stroke="#000" stroke-opacity="0" fill="#245aff"/><path d="M347.9 562.95l-28.5 5.28-11.04 9.17 3.6 3.6-3.27 2.96 24.8 24.58h10.6c2.55-.1 4.7-1.37 5.93-3.6l14.72-25.3z" stroke="#000" stroke-opacity="0" fill-opacity=".07"/><path d="M334.42 589.35h-12.17c-.33 0-.6-.27-.6-.6 0-.33.27-.6.6-.6h12.17c.33 0 .6.27.6.6 0 .33-.27.6-.6.6z" stroke="#000" stroke-opacity="0" fill="#fff"/><path d="M326.02 583.5h4.66v5.25h-4.66v-5.24z" stroke="#000" stroke-opacity="0" fill="#fff"/><path d="M341.3 579.64c-.3 0-.55-.1-.8-.34l-8.15-8.4-5.52 5.7c-.4.43-1.04.47-1.48.1l-4.16-3.3-4.4 5.78c-.25.28-.53.43-.9.43h-7.55v3.4c0 .82.68 1.47 1.48 1.47h37.04c.8 0 1.48-.65 1.48-1.46v-3.36z" stroke="#000" stroke-opacity="0" fill="#fff"/><path d="M315.35 577.42l4.76-6.27c.37-.48 1.05-.58 1.57-.2l4.28 3.4 5.56-5.8c.25-.24.53-.36.8-.36.33 0 .6.1.8.34l8.7 8.88h6.55v-13.5c0-.8-.68-1.45-1.48-1.45h-37.04c-.8 0-1.48.66-1.48 1.46v13.5z" stroke="#000" stroke-opacity="0" fill="#fff"/><use xlink:href="#j" transform="matrix(1,0,0,1,289.7206106817267,613.5568760611205) translate(-3.950000000000003 14.4)"/><path d="M189.76 155.5h-15.84c-2.48 0-5.36 1.16-7.04 2.87l-4 4.04c-1.76 1.73-2.88 4.54-2.88 7.08v48.26c0 3.5 2.88 6.3 6.32 6.3h67.36c3.44 0 6.32-2.87 6.32-6.3v-44.5c0-3.42-2.88-6.3-6.32-6.3h-28.4c-.4 0-1.36-.55-1.76-.96l-6.48-7.4c-1.92-1.92-4.8-3.1-7.28-3.1z" stroke="#000" stroke-opacity="0" fill="#245aff"/><use xlink:href="#k" transform="matrix(1,0,0,1,130,233.04707556269372) translate(44.574999999999996 14.4)"/><path d="M242 189.77h27.88a.12.12 0 0 1 .12.1.12.12 0 0 0 .12.13h10.9" stroke="#333" stroke-width="4" fill="none"/><path d="M242.05 191.74H240v-3.95h2.05z" stroke="#333" stroke-width=".05" fill="#333"/><path d="M296 190l-13 7.5v-15z" stroke="#333" stroke-width="4" fill="#333"/><path d="M332.22 156.23h-29.47c-1.28 0-2.34 1.02-2.34 2.3v62.93c0 1.3 1.07 2.3 2.35 2.3h51.1c1.27 0 2.27-1 2.27-2.3V179.8c0-1.28-1-2.3-2.28-2.3h-17c-1.27 0-2.28-1-2.28-2.3v-16.67-.07c0-1.22-1.06-2.23-2.34-2.23z" stroke="#000" stroke-opacity="0" fill="#fff"/><path d="M331.16 159.15V175c0 3.2 2.6 5.75 5.83 5.8h16.05v40.05H303.5v-61.7h27.66m1.08-3.43h-29.87c-1.3 0-2.37 1.03-2.37 2.33v63.9c0 1.3 1.07 2.33 2.38 2.33h51.8c1.3 0 2.38-1.03 2.38-2.33v-42.3c0-1.3-1.07-2.33-2.38-2.33h-17.2c-1.3 0-2.37-1.03-2.37-2.33v-16.95c0-1.3-1-2.33-2.36-2.33z" stroke="#000" stroke-opacity="0" fill="url(#l)"/><path d="M355.65 177.76l-21.83-21.53v17.55c-.02 2.2 1.77 3.96 3.98 3.98z" stroke="#000" stroke-opacity="0" fill="#0032e4"/><path d="M311.36 186.9h33.84c1.54 0 2.3.78 2.3 2.3v.52c0 1.54-.76 2.3-2.3 2.3h-33.84c-1.54 0-2.3-.76-2.3-2.3v-.5c0-1.54.76-2.3 2.3-2.3zM311.36 196.1h33.84c1.54 0 2.3.77 2.3 2.3v.5c0 1.54-.76 2.3-2.3 2.3h-33.84c-1.54 0-2.3-.76-2.3-2.3v-.5c0-1.53.76-2.3 2.3-2.3zM311.38 205.22h19.6c1.56 0 2.33.77 2.33 2.3v.5c0 1.54-.76 2.3-2.32 2.3h-19.6c-1.55 0-2.33-.76-2.33-2.3v-.5c0-1.53.78-2.3 2.33-2.3z" stroke="#000" stroke-opacity="0" fill="#245aff"/><use xlink:href="#m" transform="matrix(1,0,0,1,270,233.2784380305603) translate(30.525 14.4)"/><path d="M203.94 346h-29.47c-1.28 0-2.34 1-2.34 2.3v62.93c0 1.3 1.06 2.3 2.34 2.3h51.1c1.27 0 2.27-1 2.27-2.3v-41.66c0-1.28-1-2.3-2.28-2.3h-17c-1.27 0-2.28-1-2.28-2.3V348.3v-.07c0-1.22-1.06-2.23-2.34-2.23z" stroke="#000" stroke-opacity="0" fill="#fff"/><path d="M202.88 348.92v15.83c0 3.23 2.6 5.76 5.83 5.83h16.07v40.04h-49.54v-61.7h27.66m1.06-3.43H174.1c-1.3 0-2.38 1.02-2.38 2.32v63.9c0 1.3 1.07 2.33 2.38 2.33h51.8c1.3 0 2.38-1.03 2.38-2.33v-42.3c0-1.3-1.07-2.33-2.38-2.33h-17.2c-1.3 0-2.36-1.04-2.36-2.35v-16.93c0-1.3-1.02-2.33-2.38-2.33z" stroke="#000" stroke-opacity="0" fill="url(#n)"/><path d="M227.38 367.53L205.53 346v17.55c-.02 2.2 1.77 3.96 3.98 3.98z" stroke="#000" stroke-opacity="0" fill="#0032e4"/><path d="M183.08 376.68h33.84c1.54 0 2.3.77 2.3 2.3v.5c0 1.54-.76 2.3-2.3 2.3h-33.84c-1.54 0-2.3-.75-2.3-2.3v-.5c0-1.53.76-2.3 2.3-2.3zM183.08 385.87h33.84c1.54 0 2.3.77 2.3 2.3v.5c0 1.54-.76 2.3-2.3 2.3h-33.84c-1.54 0-2.3-.76-2.3-2.3v-.5c0-1.53.76-2.3 2.3-2.3zM183.1 395h19.6c1.56 0 2.33.75 2.33 2.3v.5c0 1.53-.77 2.3-2.33 2.3h-19.6c-1.55 0-2.33-.77-2.33-2.3v-.5c0-1.55.78-2.3 2.33-2.3z" stroke="#000" stroke-opacity="0" fill="#245aff"/><use xlink:href="#m" transform="matrix(1,0,0,1,141.72028862478777,423.0470755626939) translate(30.525 14.4)"/><path d="M332.22 346h-29.47c-1.28 0-2.34 1-2.34 2.3v62.93c0 1.3 1.07 2.3 2.35 2.3h51.1c1.27 0 2.27-1 2.27-2.3v-41.66c0-1.28-1-2.3-2.28-2.3h-17c-1.27 0-2.28-1-2.28-2.3V348.3v-.07c0-1.22-1.06-2.23-2.34-2.23z" stroke="#000" stroke-opacity="0" fill="#fff"/><path d="M331.16 348.92v15.83c0 3.23 2.6 5.76 5.83 5.83h16.05v40.04H303.5v-61.7h27.66m1.08-3.43h-29.87c-1.3 0-2.37 1.02-2.37 2.32v63.9c0 1.3 1.07 2.33 2.38 2.33h51.8c1.3 0 2.38-1.03 2.38-2.33v-42.3c0-1.3-1.07-2.33-2.38-2.33h-17.2c-1.3 0-2.37-1.04-2.37-2.35v-16.93c0-1.3-1-2.33-2.36-2.33z" stroke="#000" stroke-opacity="0" fill="url(#o)"/><path d="M355.65 367.53L333.82 346v17.55c-.02 2.2 1.77 3.96 3.98 3.98z" stroke="#000" stroke-opacity="0" fill="#0032e4"/><path d="M311.36 376.68h33.84c1.54 0 2.3.77 2.3 2.3v.5c0 1.54-.76 2.3-2.3 2.3h-33.84c-1.54 0-2.3-.75-2.3-2.3v-.5c0-1.53.76-2.3 2.3-2.3zM311.36 385.87h33.84c1.54 0 2.3.77 2.3 2.3v.5c0 1.54-.76 2.3-2.3 2.3h-33.84c-1.54 0-2.3-.76-2.3-2.3v-.5c0-1.53.76-2.3 2.3-2.3zM311.38 395h19.6c1.56 0 2.33.75 2.33 2.3v.5c0 1.53-.76 2.3-2.32 2.3h-19.6c-1.55 0-2.33-.77-2.33-2.3v-.5c0-1.55.78-2.3 2.33-2.3z" stroke="#000" stroke-opacity="0" fill="#245aff"/><use xlink:href="#p" transform="matrix(1,0,0,1,270,423.0470755626939) translate(-17.400000000000006 14.4)"/><path d="M230.28 379.77H281" stroke="#333" stroke-width="4" fill="none"/><path d="M230.33 381.74h-2.05v-3.95h2.05z" stroke="#333" stroke-width=".05" fill="#333"/><path d="M296 379.77l-13 7.5v-15z" stroke="#333" stroke-width="4" fill="#333"/><path d="M203.94 536.23h-29.47c-1.28 0-2.34 1-2.34 2.3v62.93c0 1.3 1.06 2.3 2.34 2.3h51.1c1.27 0 2.27-1 2.27-2.3V559.8c0-1.28-1-2.3-2.28-2.3h-17c-1.27 0-2.28-1-2.28-2.3v-16.67-.07c0-1.22-1.06-2.23-2.34-2.23z" stroke="#000" stroke-opacity="0" fill="#fff"/><path d="M202.88 539.15V555c0 3.2 2.6 5.75 5.83 5.8h16.07v40.05h-49.54v-61.7h27.66m1.06-3.43H174.1c-1.3 0-2.38 1.03-2.38 2.33v63.9c0 1.3 1.07 2.33 2.38 2.33h51.8c1.3 0 2.38-1.03 2.38-2.33v-42.3c0-1.3-1.07-2.33-2.38-2.33h-17.2c-1.3 0-2.36-1.03-2.36-2.33v-16.95c0-1.3-1.02-2.33-2.38-2.33z" stroke="#000" stroke-opacity="0" fill="url(#q)"/><path d="M227.38 557.76l-21.84-21.53v17.55c-.02 2.2 1.77 3.96 3.98 3.98z" stroke="#000" stroke-opacity="0" fill="#0032e4"/><path d="M183.08 566.9h33.84c1.54 0 2.3.78 2.3 2.3v.52c0 1.54-.76 2.3-2.3 2.3h-33.84c-1.54 0-2.3-.76-2.3-2.3v-.5c0-1.54.76-2.3 2.3-2.3zM183.08 576.1h33.84c1.54 0 2.3.77 2.3 2.3v.5c0 1.54-.76 2.3-2.3 2.3h-33.84c-1.54 0-2.3-.76-2.3-2.3v-.5c0-1.53.76-2.3 2.3-2.3zM183.1 585.22h19.6c1.56 0 2.33.77 2.33 2.3v.5c0 1.54-.77 2.3-2.33 2.3h-19.6c-1.55 0-2.33-.76-2.33-2.3v-.5c0-1.53.78-2.3 2.33-2.3z" stroke="#000" stroke-opacity="0" fill="#245aff"/><use xlink:href="#p" transform="matrix(1,0,0,1,141.72028862478777,613.2784380305607) translate(-17.400000000000006 14.4)"/><path d="M230.28 574.28h40.51" stroke="#333" stroke-width="4" fill="none"/><path d="M230.33 576.25h-2.05v-3.95h2.05z" stroke="#333" stroke-width=".05" fill="#333"/><path d="M285.77 574.28l-12.98 7.5v-15z" stroke="#333" stroke-width="4" fill="#333"/><path d="M728.5 140.52h-26.07c-1.13 0-2.07 1.04-2.07 2.35v64.3c0 1.3.94 2.34 2.07 2.34h45.2c1.12 0 2-1.03 2-2.34V164.6c0-1.3-.88-2.35-2-2.35h-15.04c-1.14 0-2.03-1.03-2.03-2.34v-17.03-.07c0-1.24-.94-2.28-2.07-2.28z" stroke="#000" stroke-opacity="0" fill="#fff"/><path d="M727.56 143.5v16.18c0 3.3 2.3 5.88 5.16 5.95h14.2v40.9H703.1V143.5h24.46m.95-3.5h-26.4c-1.15 0-2.1 1.05-2.1 2.38v65.27c0 1.34.95 2.4 2.1 2.4h45.82c1.16 0 2.1-1.06 2.1-2.4v-43.2c0-1.34-.94-2.4-2.1-2.4h-15.2c-1.15 0-2.1-1.04-2.1-2.37v-17.3c0-1.33-.9-2.38-2.1-2.38z" stroke="#000" stroke-opacity="0" fill="url(#r)"/><path d="M749.23 162.5l-19.32-21.98v17.92c0 2.25 1.58 4.05 3.53 4.07z" stroke="#000" stroke-opacity="0" fill="#0032e4"/><path d="M710.04 171.87H740c1.36 0 2.04.78 2.04 2.34v.54c0 1.56-.68 2.34-2.04 2.34h-29.94c-1.36 0-2.04-.78-2.04-2.34v-.53c0-1.55.68-2.33 2.04-2.33zM710.04 181.25H740c1.36 0 2.04.78 2.04 2.35v.52c0 1.57-.68 2.35-2.04 2.35h-29.94c-1.36 0-2.04-.78-2.04-2.35v-.52c0-1.57.68-2.35 2.04-2.35zM710.06 190.57h17.35c1.38 0 2.07.78 2.07 2.34v.53c0 1.57-.7 2.35-2.07 2.35h-17.34c-1.37 0-2.06-.78-2.06-2.34v-.53c0-1.55.7-2.33 2.06-2.33z" stroke="#000" stroke-opacity="0" fill="#245aff"/><use xlink:href="#s" transform="matrix(1,0,0,1,669.9999999999999,219.0355871886121) translate(-3.90966796875 14.9853515625)"/><use xlink:href="#t" transform="matrix(1,0,0,1,669.9999999999999,219.0355871886121) translate(-9.310546875 35.3759765625)"/><path d="M1068.5 140.52h-26.07c-1.13 0-2.07 1.04-2.07 2.35v64.3c0 1.3.94 2.34 2.07 2.34h45.2c1.12 0 2-1.03 2-2.34V164.6c0-1.3-.88-2.35-2-2.35h-15.04c-1.14 0-2.03-1.03-2.03-2.34v-17.03-.07c0-1.24-.94-2.28-2.07-2.28z" stroke="#000" stroke-opacity="0" fill="#fff"/><path d="M1067.56 143.5v16.18c0 3.3 2.3 5.88 5.16 5.95h14.2v40.9h-43.82V143.5h24.46m.95-3.5h-26.4c-1.15 0-2.1 1.05-2.1 2.38v65.27c0 1.34.95 2.4 2.1 2.4h45.82c1.15 0 2.1-1.06 2.1-2.4v-43.2c0-1.34-.94-2.4-2.1-2.4h-15.2c-1.15 0-2.1-1.04-2.1-2.37v-17.3c0-1.33-.9-2.38-2.1-2.38z" stroke="#000" stroke-opacity="0" fill="url(#u)"/><path d="M1089.22 162.5l-19.3-21.98v17.92c-.02 2.25 1.56 4.05 3.5 4.07z" stroke="#000" stroke-opacity="0" fill="#0032e4"/><path d="M1050.05 171.87h29.93c1.36 0 2.04.78 2.04 2.34v.54c0 1.56-.68 2.34-2.04 2.34h-29.93c-1.37 0-2.05-.78-2.05-2.34v-.53c0-1.55.68-2.33 2.05-2.33zM1050.05 181.25h29.93c1.36 0 2.04.78 2.04 2.35v.52c0 1.57-.68 2.35-2.04 2.35h-29.93c-1.37 0-2.05-.78-2.05-2.35v-.52c0-1.57.68-2.35 2.05-2.35zM1050.06 190.57h17.35c1.38 0 2.06.78 2.06 2.34v.53c0 1.57-.68 2.35-2.06 2.35h-17.34c-1.37 0-2.06-.78-2.06-2.34v-.53c0-1.55.7-2.33 2.06-2.33z" stroke="#000" stroke-opacity="0" fill="#245aff"/><use xlink:href="#v" transform="matrix(1,0,0,1,1010,219.0355871886121) translate(2.1579861111111143 15.230902777777779)"/><path d="M603.5 140.52H577.4c-1.13 0-2.07 1.04-2.07 2.35v64.3c0 1.3.94 2.34 2.07 2.34h45.2c1.12 0 2-1.03 2-2.34V164.6c0-1.3-.88-2.35-2-2.35h-15.04c-1.14 0-2.02-1.03-2.02-2.34v-17.03-.07c0-1.24-.94-2.28-2.07-2.28z" stroke="#000" stroke-opacity="0" fill="#fff"/><path d="M602.55 143.5v16.18c0 3.3 2.3 5.88 5.15 5.95h14.2v40.9h-43.8V143.5h24.45m.95-3.5h-26.4c-1.16 0-2.1 1.05-2.1 2.38v65.27c0 1.34.94 2.4 2.1 2.4h45.8c1.16 0 2.1-1.06 2.1-2.4v-43.2c0-1.34-.94-2.4-2.1-2.4h-15.2c-1.15 0-2.1-1.04-2.1-2.37v-17.3c0-1.33-.9-2.38-2.1-2.38z" stroke="#000" stroke-opacity="0" fill="url(#w)"/><path d="M624.2 162.5l-19.3-21.98v17.92c-.02 2.25 1.57 4.05 3.52 4.07z" stroke="#000" stroke-opacity="0" fill="#0032e4"/><path d="M585.03 171.87h29.94c1.36 0 2.04.78 2.04 2.34v.54c0 1.56-.67 2.34-2.03 2.34h-29.94c-1.36 0-2.04-.78-2.04-2.34v-.53c0-1.55.67-2.33 2.03-2.33zM585.03 181.25h29.94c1.36 0 2.04.78 2.04 2.35v.52c0 1.57-.67 2.35-2.03 2.35h-29.94c-1.36 0-2.04-.78-2.04-2.35v-.52c0-1.57.67-2.35 2.03-2.35zM585.05 190.57h17.34c1.37 0 2.05.78 2.05 2.34v.53c0 1.57-.68 2.35-2.06 2.35h-17.35c-1.37 0-2.06-.78-2.06-2.34v-.53c0-1.55.68-2.33 2.05-2.33z" stroke="#000" stroke-opacity="0" fill="#245aff"/><use xlink:href="#x" transform="matrix(1,0,0,1,544.9872902897813,219.0355871886121) translate(1.4912109375 15.2900390625)"/><use xlink:href="#y" transform="matrix(1,0,0,1,544.9872902897813,219.0355871886121) translate(87.9052734375 15.2900390625)"/><path d="M928.5 140.52h-26.07c-1.13 0-2.07 1.04-2.07 2.35v64.3c0 1.3.94 2.34 2.07 2.34h45.2c1.12 0 2-1.03 2-2.34V164.6c0-1.3-.88-2.35-2-2.35h-15.04c-1.14 0-2.03-1.03-2.03-2.34v-17.03-.07c0-1.24-.94-2.28-2.07-2.28z" stroke="#000" stroke-opacity="0" fill="#fff"/><path d="M927.56 143.5v16.18c0 3.3 2.3 5.88 5.16 5.95h14.2v40.9H903.1V143.5h24.46m.95-3.5h-26.4c-1.15 0-2.1 1.05-2.1 2.38v65.27c0 1.34.95 2.4 2.1 2.4h45.82c1.16 0 2.1-1.06 2.1-2.4v-43.2c0-1.34-.94-2.4-2.1-2.4h-15.2c-1.15 0-2.1-1.04-2.1-2.37v-17.3c0-1.33-.9-2.38-2.1-2.38z" stroke="#000" stroke-opacity="0" fill="url(#z)"/><path d="M949.23 162.5l-19.32-21.98v17.92c0 2.25 1.58 4.05 3.53 4.07z" stroke="#000" stroke-opacity="0" fill="#0032e4"/><path d="M910.04 171.87H940c1.36 0 2.04.78 2.04 2.34v.54c0 1.56-.68 2.34-2.04 2.34h-29.94c-1.36 0-2.04-.78-2.04-2.34v-.53c0-1.55.68-2.33 2.04-2.33zM910.04 181.25H940c1.36 0 2.04.78 2.04 2.35v.52c0 1.57-.68 2.35-2.04 2.35h-29.94c-1.36 0-2.04-.78-2.04-2.35v-.52c0-1.57.68-2.35 2.04-2.35zM910.06 190.57h17.35c1.38 0 2.07.78 2.07 2.34v.53c0 1.57-.7 2.35-2.07 2.35h-17.34c-1.37 0-2.06-.78-2.06-2.34v-.53c0-1.55.7-2.33 2.06-2.33z" stroke="#000" stroke-opacity="0" fill="#245aff"/><use xlink:href="#A" transform="matrix(1,0,0,1,869.9999999999999,219.0355871886121) translate(-3.90966796875 15.2900390625)"/><path d="M500 297.77a8 8 0 0 1 8-8h304a8 8 0 0 1 8 8v164a8 8 0 0 1-8 8H508a8 8 0 0 1-8-8z" stroke="#333" fill="#f2f3f5"/><use xlink:href="#B" transform="matrix(1,0,0,1,505,294.7686375321339) translate(39.5 14.4)"/><use xlink:href="#C" transform="matrix(1,0,0,1,505,294.7686375321339) translate(80.4 14.4)"/><use xlink:href="#D" transform="matrix(1,0,0,1,505,294.7686375321339) translate(174.65 14.4)"/><path d="M599.77 331.88c-.76.08-1.36.23-1.97.53l-26.3 12.97c-1.43.68-2.42 1.9-2.72 3.5l-6.52 29.16c-.3 1.36-.08 2.73.68 3.94.08.15.15.23.3.38l18.2 23.34c.98 1.28 2.34 1.96 3.93 1.96h29.26c1.6 0 2.95-.68 3.94-1.97l18.18-23.35c1-1.3 1.37-2.8 1-4.4l-6.53-29.1c-.3-1.6-1.3-2.8-2.73-3.48l-26.3-12.96c-.84-.37-1.6-.6-2.43-.52z" stroke="#000" stroke-opacity="0" stroke-width="3.83" fill="#245aff"/><path d="M599.76 329.77c-.8.08-1.44.24-2.08.56L569.92 344c-1.52.73-2.56 2-2.88 3.7l-6.88 30.8c-.32 1.43-.08 2.87.72 4.15.08.16.16.24.32.4l19.2 24.64c1.04 1.35 2.48 2.07 4.16 2.07h30.88c1.68 0 3.12-.72 4.16-2.08l19.2-24.65c1.04-1.36 1.44-2.96 1.04-4.56l-6.88-30.8c-.32-1.7-1.36-2.97-2.88-3.7l-27.76-13.67c-.88-.4-1.68-.64-2.56-.56zm0 2.16c.88-.08 1.6.08 2.4.48l26.4 12.97c1.36.72 2.32 1.92 2.72 3.52l6.48 29.1c.32 1.6 0 3.05-.96 4.33l-18.24 23.36c-.96 1.27-2.32 2-3.92 2h-29.28c-1.6 0-2.96-.73-3.92-2l-18.24-23.37c-.08-.08-.16-.24-.24-.4-.8-1.2-1.04-2.48-.72-3.92l6.48-29.1c.4-1.6 1.28-2.8 2.72-3.53l26.4-12.96c.64-.3 1.2-.47 1.92-.55z" stroke="#000" stroke-opacity="0" stroke-width="3.83" fill="#fff"/><path d="M593.18 397.8c0 .92.14 1.6.4 2.03.3.44.7.65 1.27.65.4 0 .7-.1.97-.33.27-.2.43-.55.5-1l1.1.07c-.08.66-.35 1.18-.8 1.57-.46.38-1.04.58-1.74.58-.93 0-1.64-.3-2.12-.9-.5-.6-.73-1.5-.73-2.64 0-1.15.24-2.02.73-2.63.5-.6 1.2-.9 2.1-.9.68 0 1.24.2 1.68.55.45.36.73.86.85 1.5l-1.14.08c-.06-.38-.2-.68-.44-.9-.23-.22-.56-.33-1-.33-.57 0-1 .2-1.25.6-.26.4-.4 1.07-.4 2zM598.62 401.25v-5.22c0-.48 0-1-.03-1.6h1.02c.04.78.05 1.24.05 1.4h.03c.17-.58.38-.98.6-1.2.23-.2.55-.32.97-.32.14 0 .3.03.45.07v1.05c-.15-.05-.35-.07-.6-.07-.45 0-.8.2-1.04.6-.24.42-.36 1-.36 1.75v3.55zM606.95 400.16c-.2.43-.47.74-.8.93-.35.18-.76.28-1.26.28-.84 0-1.46-.3-1.85-.87-.4-.57-.6-1.45-.6-2.63 0-2.38.82-3.56 2.44-3.56.5 0 .9.1 1.25.3.33.2.6.5.8.9V391.9h1.1v7.94c0 .7.02 1.2.04 1.42h-1.06c0-.07-.03-.23-.04-.48l-.02-.62zm-3.34-2.33c0 .96.14 1.64.38 2.05.25.42.64.63 1.2.63.62 0 1.07-.22 1.35-.67.28-.44.42-1.13.42-2.07 0-.9-.14-1.56-.42-1.98-.28-.42-.73-.63-1.35-.63-.55 0-.95.2-1.2.64-.24.4-.37 1.1-.37 2.03z" stroke="#000" stroke-opacity="0" fill="#fff"/><path d="M618.9 364.52h-3.06v-8.43c0-2.36-1.85-4.26-4.13-4.26h-8.16v-3.15c0-2.94-2.32-5.3-5.12-5.3-2.84 0-5.12 2.36-5.12 5.3v3.14h-8.2c-2.25 0-4.1 1.9-4.1 4.25v8.02h3.05c3.06 0 5.55 2.53 5.55 5.67s-2.5 5.7-5.55 5.7H581v8.04c0 2.3 1.85 4.2 4.1 4.2h7.77v-3.14c0-3.15 2.5-5.72 5.55-5.72s5.5 2.57 5.5 5.72v3.15h7.8c2.27 0 4.12-1.9 4.12-4.2v-8.48h3.05c2.83 0 5.1-2.35 5.1-5.28 0-2.9-2.27-5.28-5.1-5.28z" stroke="#000" stroke-opacity="0" stroke-width="1.74" fill="#fff"/><use xlink:href="#E" transform="matrix(1,0,0,1,529.9999999999999,418.7686375321339) translate(21.574999999999996 14.4)"/><use xlink:href="#F" transform="matrix(1,0,0,1,529.9999999999999,418.7686375321339) translate(83.42500000000001 14.4)"/><path d="M724.48 329.77H705.7c-3.15 0-5.7 2.15-5.7 4.83v15.9h11.43V339.4h13.05zM774.3 329.77h-18.78v9.65h13.05v11.07H780v-15.9c0-2.68-2.55-4.83-5.7-4.83zM768.57 389.05v11.04h-13.05v9.67h18.78c3.15 0 5.7-2.16 5.7-4.83v-15.9zM711.43 400.1v-11.05H700V404.94c0 2.67 2.55 4.83 5.7 4.83h18.78v-9.66z" stroke="#000" stroke-opacity="0" fill="#32bedd"/><path d="M710.6 403.55h58.76c1.83 0 3.26-1.2 3.26-2.77v-62.06c0-1.55-1.43-2.77-3.26-2.77H710.6c-1.82 0-3.26 1.22-3.26 2.77v62.13c0 1.5 1.5 2.7 3.27 2.7z" stroke="#000" stroke-opacity="0" fill="url(#G)"/><path d="M715.46 398.1h49.08c.9 0 1.62-.63 1.62-1.37V342.9c0-.75-.73-1.37-1.62-1.37h-49.08c-.9 0-1.62.62-1.62 1.36v53.83c0 .74.73 1.36 1.62 1.36z" stroke="#000" stroke-opacity="0" fill="#fff"/><path d="M726.92 389.77H753c.9 0 1.64-.62 1.64-1.38v-6.2c0-.77-.73-1.4-1.64-1.4h-26.08c-.9 0-1.64.63-1.64 1.4v6.2c0 .75.73 1.37 1.64 1.37z" stroke="#000" stroke-opacity="0" fill="#5e9624"/><path d="M726.92 374.25H753c.9 0 1.64-.62 1.64-1.38v-6.2c0-.76-.73-1.38-1.64-1.38h-26.08c-.9 0-1.64.6-1.64 1.37v6.2c0 .76.73 1.38 1.64 1.38z" stroke="#000" stroke-opacity="0" fill="#76bc2d"/><path d="M726.92 358.73H753c.9 0 1.64-.62 1.64-1.38v-6.2c0-.76-.73-1.38-1.64-1.38h-26.08c-.9 0-1.64.62-1.64 1.38v6.2c0 .76.73 1.38 1.64 1.38z" stroke="#000" stroke-opacity="0" fill="#86d633"/><use xlink:href="#H" transform="matrix(1,0,0,1,669.9999999999999,418.7686375321339) translate(33.574999999999996 14.4)"/><use xlink:href="#I" transform="matrix(1,0,0,1,669.9999999999999,418.7686375321339) translate(34.025 36)"/><path d="M500 488a8 8 0 0 1 8-8h304a8 8 0 0 1 8 8v164a8 8 0 0 1-8 8H508a8 8 0 0 1-8-8z" stroke="#333" fill="#f2f3f5"/><use xlink:href="#J" transform="matrix(1,0,0,1,505,485) translate(106.07499999999999 14.4)"/><path d="M599.77 522.1c-.76.1-1.36.24-1.97.54l-26.3 12.96c-1.43.68-2.42 1.9-2.72 3.5l-6.52 29.16c-.3 1.37-.08 2.73.68 3.94.08.15.15.23.3.38l18.2 23.34c.98 1.3 2.34 1.97 3.93 1.97h29.26c1.6 0 2.95-.7 3.94-1.98l18.18-23.34c1-1.3 1.37-2.8 1-4.4l-6.53-29.1c-.3-1.6-1.3-2.8-2.73-3.48l-26.3-12.96c-.84-.38-1.6-.6-2.43-.53z" stroke="#000" stroke-opacity="0" stroke-width="3.83" fill="#326ce5"/><path d="M599.76 520c-.8.08-1.44.24-2.08.56l-27.76 13.68c-1.52.72-2.56 2-2.88 3.68l-6.88 30.8c-.32 1.44-.08 2.88.72 4.16.08.16.16.24.32.4l19.2 24.64c1.04 1.36 2.48 2.08 4.16 2.08h30.88c1.68 0 3.12-.72 4.16-2.08l19.2-24.64c1.04-1.36 1.44-2.96 1.04-4.56l-6.88-30.8c-.32-1.68-1.36-2.96-2.88-3.68l-27.76-13.68c-.88-.4-1.68-.64-2.56-.56zm0 2.16c.88-.08 1.6.08 2.4.48l26.4 12.96c1.36.72 2.32 1.92 2.72 3.52l6.48 29.12c.32 1.6 0 3.04-.96 4.32l-18.24 23.36c-.96 1.28-2.32 2-3.92 2h-29.28c-1.6 0-2.96-.72-3.92-2l-18.24-23.36c-.08-.08-.16-.24-.24-.4-.8-1.2-1.04-2.48-.72-3.92l6.48-29.12c.4-1.6 1.28-2.8 2.72-3.52l26.4-12.96c.64-.32 1.2-.48 1.92-.56z" stroke="#000" stroke-opacity="0" stroke-width="3.83" fill="#fff"/><path d="M601.42 550.98v3.62h17.07v-3.62zM592.66 541.3v3.62h25.83v-3.62zM581.5 541.3v3.62H588v-3.62zM602.04 560.65v3.63h16.45v-3.63zM592.66 570.32v3.63h25.83v-3.63zM581.5 570.32v3.63H588v-3.63z" stroke="#000" stroke-opacity="0" stroke-width="3.77" fill="#fff"/><path d="M602.54 564.8c0 1.4-1.1 2.53-2.46 2.53-1.36 0-2.46-1.14-2.46-2.54 0-1.4 1.1-2.54 2.46-2.54 1.36 0 2.46 1.13 2.46 2.53z" stroke="#000" stroke-opacity="0" stroke-width="3.77" fill="#326ce5"/><path d="M590.37 553.85l4.44.06c1.67-7.06 9.67-5.74 10.58.2l4.35-.25c-1.4-11.58-17.46-13.26-19.14-1.23z" stroke="#000" stroke-opacity="0" stroke-width="3.77" fill="#fff"/><path d="M599.98 543.95c-5.83 0-10.6 4.58-10.6 10.26 1.68 0 5.28.1 5.85 0 0-2.3 2.08-4.22 4.75-4.22s4.75 1.93 4.75 4.23c1.02.05 5.28-.2 5.85 0 0-5.67-4.77-10.25-10.6-10.25zm0 1.2c4.98 0 8.8 3.8 9.18 8.46h-3.54c-.36-2.7-2.67-4.83-5.64-4.83-2.97 0-5.28 2.13-5.64 4.84h-3.52c.36-4.65 4.18-8.45 9.16-8.45z" stroke="#000" stroke-opacity="0" stroke-width="3.77" fill="#326ce5"/><path d="M587.25 554.3h25.2v16.18h-25.2V554.3z" stroke="#000" stroke-opacity="0" stroke-width="3.77" fill="#fff"/><path d="M587.05 553.45v17.94h26.08v-17.95zm1.17 1.22h23.74v15.5h-23.74z" stroke="#000" stroke-opacity="0" stroke-width="3.77" fill="#326ce5"/><path d="M588.54 589.04c0 .65-.24 1.14-.7 1.5-.48.34-1.14.5-2 .5-.8 0-1.45-.13-1.9-.4-.44-.28-.73-.72-.86-1.3l.97-.2c.1.36.3.62.58.8.3.17.7.25 1.22.25.56 0 .97-.1 1.22-.27.26-.18.4-.45.4-.8 0-.27-.1-.5-.27-.66-.18-.16-.47-.3-.87-.4l-.8-.22c-.62-.17-1.07-.34-1.34-.5-.28-.16-.48-.36-.63-.6-.15-.22-.23-.5-.23-.84 0-.6.2-1.08.64-1.4.44-.33 1.06-.5 1.9-.5.7 0 1.3.14 1.72.4.43.27.7.7.82 1.27l-1 .13c-.05-.3-.22-.53-.48-.7-.27-.16-.63-.24-1.07-.24-.5 0-.87.08-1.1.24-.24.15-.36.38-.36.7 0 .2.06.35.16.48.1.12.24.23.43.32.18.1.58.2 1.2.37.58.14 1 .28 1.26.42.26.12.46.26.6.4.15.17.27.34.36.55.08.2.12.43.12.7zM590.67 587.76c0 .78.16 1.4.48 1.8.3.43.76.65 1.37.65.48 0 .86-.1 1.14-.3.3-.2.5-.44.6-.74l.96.28c-.4 1.08-1.3 1.6-2.7 1.6-.98 0-1.73-.28-2.24-.88-.5-.6-.76-1.5-.76-2.68 0-1.13.25-2 .76-2.6.5-.6 1.25-.9 2.2-.9 1.94 0 2.9 1.22 2.9 3.63v.16zm3.58-.87c-.06-.73-.23-1.25-.53-1.58-.3-.33-.7-.5-1.26-.5-.53 0-.96.2-1.27.56-.33.37-.5.87-.5 1.5zM597.64 587.5c0 .9.14 1.57.4 2 .3.45.7.66 1.26.66.4 0 .72-.1.98-.33.26-.22.43-.55.5-1l1.1.07c-.08.66-.35 1.18-.8 1.57-.47.4-1.04.58-1.74.58-.93 0-1.64-.3-2.13-.9-.47-.6-.7-1.48-.7-2.64 0-1.13.23-2 .72-2.6.5-.6 1.2-.9 2.1-.9.68 0 1.24.17 1.68.53.45.36.73.86.85 1.5l-1.13.08c-.06-.37-.2-.67-.44-.9-.23-.22-.56-.32-1-.32-.57 0-1 .2-1.26.6-.25.4-.38 1.07-.38 2zM603.08 590.93v-5.23c0-.48 0-1-.04-1.6h1.04l.05 1.4h.02c.18-.58.38-.98.6-1.2.24-.2.56-.3.98-.3.14 0 .3 0 .44.05v1.04c-.14-.05-.34-.07-.58-.07-.47 0-.82.2-1.06.6-.24.4-.36 1-.36 1.74v3.56zM608.08 587.76c0 .78.15 1.4.47 1.8.3.43.77.65 1.37.65.48 0 .86-.1 1.15-.3.3-.2.48-.44.58-.74l.97.28c-.4 1.08-1.3 1.6-2.7 1.6-.98 0-1.72-.28-2.23-.88-.52-.6-.78-1.5-.78-2.68 0-1.13.26-2 .77-2.6.5-.6 1.23-.9 2.18-.9 1.95 0 2.92 1.22 2.92 3.63v.16zm3.58-.87c-.06-.73-.24-1.25-.53-1.58-.3-.33-.72-.5-1.26-.5s-.96.2-1.28.56c-.32.37-.48.87-.5 1.5zM616.74 590.88c-.36.1-.73.15-1.1.15-.9 0-1.33-.52-1.33-1.55v-4.55h-.75v-.8h.8l.33-1.54h.73v1.5h1.24v.83h-1.23v4.3c0 .34.06.57.16.7.1.14.3.2.55.2.15 0 .37-.03.64-.1z" stroke="#000" stroke-opacity="0" fill="#fff"/><path d="M602.55 562.42c0 1.4-1.1 2.54-2.46 2.54-1.37 0-2.47-1.14-2.47-2.54 0-1.4 1.1-2.54 2.46-2.54 1.35 0 2.45 1.14 2.45 2.54z" stroke="#000" stroke-opacity="0" stroke-width="3.77" fill="#326ce5"/><use xlink:href="#K" transform="matrix(1,0,0,1,529.9999999999999,609) translate(11.323784722222229 15.230902777777779)"/><path d="M739.77 522.1c-.76.1-1.36.24-1.97.54l-26.3 12.96c-1.43.68-2.42 1.9-2.72 3.5l-6.52 29.16c-.3 1.37-.08 2.73.68 3.94.08.15.15.23.3.38l18.2 23.34c.98 1.3 2.34 1.97 3.93 1.97h29.26c1.6 0 2.95-.7 3.94-1.98l18.18-23.34c1-1.3 1.37-2.8 1-4.4l-6.53-29.1c-.3-1.6-1.3-2.8-2.73-3.48l-26.3-12.96c-.84-.38-1.6-.6-2.43-.53z" stroke="#000" stroke-opacity="0" stroke-width="3.83" fill="#326ce5"/><path d="M739.76 520c-.8.08-1.44.24-2.08.56l-27.76 13.68c-1.52.72-2.56 2-2.88 3.68l-6.88 30.8c-.32 1.44-.08 2.88.72 4.16.08.16.16.24.32.4l19.2 24.64c1.04 1.36 2.48 2.08 4.16 2.08h30.88c1.68 0 3.12-.72 4.16-2.08l19.2-24.64c1.04-1.36 1.44-2.96 1.04-4.56l-6.88-30.8c-.32-1.68-1.36-2.96-2.88-3.68l-27.76-13.68c-.88-.4-1.68-.64-2.56-.56zm0 2.16c.88-.08 1.6.08 2.4.48l26.4 12.96c1.36.72 2.32 1.92 2.72 3.52l6.48 29.12c.32 1.6 0 3.04-.96 4.32l-18.24 23.36c-.96 1.28-2.32 2-3.92 2h-29.28c-1.6 0-2.96-.72-3.92-2l-18.24-23.36c-.08-.08-.16-.24-.24-.4-.8-1.2-1.04-2.48-.72-3.92l6.48-29.12c.4-1.6 1.28-2.8 2.72-3.52l26.4-12.96c.64-.32 1.2-.48 1.92-.56z" stroke="#000" stroke-opacity="0" stroke-width="3.83" fill="#fff"/><path d="M733.5 588.05c0 .9.14 1.57.4 2 .3.45.7.66 1.27.66.4 0 .7-.1.97-.3.27-.23.44-.57.5-1.02l1.1.07c-.08.66-.35 1.18-.8 1.57-.46.4-1.04.6-1.74.6-.93 0-1.64-.3-2.12-.9-.5-.62-.73-1.5-.73-2.65s.24-2.02.73-2.63c.5-.6 1.2-.9 2.1-.9.68 0 1.24.18 1.7.55.43.35.72.84.83 1.48l-1.12.08c-.06-.37-.2-.68-.44-.9-.23-.22-.56-.33-.98-.33-.6 0-1 .2-1.27.6-.27.4-.4 1.07-.4 2.02zM742.77 591.5v-4.34c0-.65-.1-1.1-.27-1.36s-.5-.38-.94-.38c-.47 0-.84.2-1.1.55-.3.37-.42.9-.42 1.56v3.96h-1.1v-5.37c0-.8 0-1.28-.03-1.46h1.04l.02.17v.32c.02.12.03.34.04.67.25-.48.52-.82.83-1 .3-.2.67-.3 1.1-.3.5 0 .92.12 1.2.32.3.2.5.53.6.98h.03c.23-.45.5-.78.82-.98.34-.2.72-.3 1.2-.3.65 0 1.13.18 1.44.56.3.38.46 1 .46 1.85v4.53h-1.1v-4.32c0-.65-.08-1.1-.25-1.36-.18-.26-.5-.38-.95-.38-.48 0-.86.2-1.12.55-.26.37-.4.9-.4 1.56v3.96z" stroke="#000" stroke-opacity="0" fill="#fff"/><path d="M732.66 541.58v3.62h25.83v-3.62zM721.5 541.58v3.62H728v-3.62zM742.05 551.26v3.62h16.45v-3.62z" stroke="#000" stroke-opacity="0" stroke-width="3.77" fill="#fff"/><path d="M730.9 551.26v3.62h6.47v-3.62zM742.05 560.94v3.62h16.45v-3.62zM730.9 560.94v3.62h6.47v-3.62zM732.66 570.6v3.63h25.83v-3.63zM721.5 570.6v3.63H728v-3.63z" stroke="#000" stroke-opacity="0" stroke-width="2.99" fill="#fff"/><use xlink:href="#K" transform="matrix(1,0,0,1,669.9999999999999,609) translate(11.323784722222229 15.230902777777779)"/><path d="M497.5 190h-38" stroke="#333" stroke-width="4" fill="none"/><path d="M499.5 191.97h-2.05v-3.94h2.05z" stroke="#333" stroke-width=".05" fill="#333"/><path d="M444.5 190l13-7.5v15z" stroke="#333" stroke-width="4" fill="#333"/><path d="M497.5 379.77h-38" stroke="#333" stroke-width="4" fill="none"/><path d="M499.5 381.74h-2.05v-3.95h2.05z" stroke="#333" stroke-width=".05" fill="#333"/><path d="M444.5 379.77l13-7.5v15z" stroke="#333" stroke-width="4" fill="#333"/><path d="M497.5 570h-38" stroke="#333" stroke-width="4" fill="none"/><path d="M499.5 571.98h-2.05V568h2.05z" stroke="#333" stroke-width=".05" fill="#333"/><path d="M444.5 570l13-7.5v15z" stroke="#333" stroke-width="4" fill="#333"/><defs><path fill="#333" d="M106-169C34-169 62-67 57 0H25v-261h32l-1 103c12-21 28-36 61-36 89 0 53 116 60 194h-32v-121c2-32-8-49-39-48" id="L"/><path fill="#333" d="M100-194c63 0 86 42 84 106H49c0 40 14 67 53 68 26 1 43-12 49-29l28 8c-11 28-37 45-77 45C44 4 14-33 15-96c1-61 26-98 85-98zm52 81c6-60-76-77-97-28-3 7-6 17-6 28h103" id="M"/><path fill="#333" d="M24 0v-261h32V0H24" id="N"/><path fill="#333" d="M210-169c-67 3-38 105-44 169h-31v-121c0-29-5-50-35-48C34-165 62-65 56 0H25l-1-190h30c1 10-1 24 2 32 10-44 99-50 107 0 11-21 27-35 58-36 85-2 47 119 55 194h-31v-121c0-29-5-49-35-48" id="O"/><g id="a"><use transform="matrix(0.05,0,0,0.05,0,0)" xlink:href="#L"/><use transform="matrix(0.05,0,0,0.05,10,0)" xlink:href="#M"/><use transform="matrix(0.05,0,0,0.05,20,0)" xlink:href="#N"/><use transform="matrix(0.05,0,0,0.05,23.95,0)" xlink:href="#O"/></g><path fill="#333" d="M101-234c-31-9-42 10-38 44h38v23H63V0H32v-167H5v-23h27c-7-52 17-82 69-68v24" id="P"/><path fill="#333" d="M59-47c-2 24 18 29 38 22v24C64 9 27 4 27-40v-127H5v-23h24l9-43h21v43h35v23H59v120" id="Q"/><path fill="#333" d="M33 0v-38h34V0H33" id="R"/><path fill="#333" d="M179-190L93 31C79 59 56 82 12 73V49c39 6 53-20 64-50L1-190h34L92-34l54-156h33" id="S"/><path fill="#333" d="M141-36C126-15 110 5 73 4 37 3 15-17 15-53c-1-64 63-63 125-63 3-35-9-54-41-54-24 1-41 7-42 31l-33-3c5-37 33-52 76-52 45 0 72 20 72 64v82c-1 20 7 32 28 27v20c-31 9-61-2-59-35zM48-53c0 20 12 33 32 33 41-3 63-29 60-74-43 2-92-5-92 41" id="T"/><g id="b"><use transform="matrix(0.05,0,0,0.05,0,0)" xlink:href="#P"/><use transform="matrix(0.05,0,0,0.05,5,0)" xlink:href="#N"/><use transform="matrix(0.05,0,0,0.05,8.95,0)" xlink:href="#M"/><use transform="matrix(0.05,0,0,0.05,18.95,0)" xlink:href="#M"/><use transform="matrix(0.05,0,0,0.05,28.950000000000003,0)" xlink:href="#Q"/><use transform="matrix(0.05,0,0,0.05,33.95,0)" xlink:href="#R"/><use transform="matrix(0.05,0,0,0.05,38.95,0)" xlink:href="#S"/><use transform="matrix(0.05,0,0,0.05,47.95,0)" xlink:href="#T"/><use transform="matrix(0.05,0,0,0.05,57.95,0)" xlink:href="#O"/><use transform="matrix(0.05,0,0,0.05,72.9,0)" xlink:href="#N"/></g><path fill="#333" d="M24-248c120-7 223 5 221 122C244-46 201 0 124 0H24v-248zM76-40c74 7 117-18 117-86 0-67-45-88-117-82v168" id="U"/><path fill="#333" d="M185-48c-13 30-37 53-82 52C43 2 14-33 14-96s30-98 90-98c62 0 83 45 84 108H66c0 31 8 55 39 56 18 0 30-7 34-22zm-45-69c5-46-57-63-70-21-2 6-4 13-4 21h74" id="V"/><path fill="#333" d="M135-194c53 0 70 44 70 98 0 56-19 98-73 100-31 1-45-17-59-34 3 33 2 69 2 105H25l-1-265h48c2 10 0 23 3 31 11-24 29-35 60-35zM114-30c33 0 39-31 40-66 0-38-9-64-40-64-56 0-55 130 0 130" id="W"/><path fill="#333" d="M25 0v-261h50V0H25" id="X"/><path fill="#333" d="M110-194c64 0 96 36 96 99 0 64-35 99-97 99-61 0-95-36-95-99 0-62 34-99 96-99zm-1 164c35 0 45-28 45-65 0-40-10-65-43-65-34 0-45 26-45 65 0 36 10 65 43 65" id="Y"/><path fill="#333" d="M123 10C108 53 80 86 19 72V37c35 8 53-11 59-39L3-190h52l48 148c12-52 28-100 44-148h51" id="Z"/><g id="c"><use transform="matrix(0.07469135802469135,0,0,0.07469135802469135,0,0)" xlink:href="#U"/><use transform="matrix(0.07469135802469135,0,0,0.07469135802469135,19.34506172839506,0)" xlink:href="#V"/><use transform="matrix(0.07469135802469135,0,0,0.07469135802469135,34.28333333333333,0)" xlink:href="#W"/><use transform="matrix(0.07469135802469135,0,0,0.07469135802469135,50.64074074074074,0)" xlink:href="#X"/><use transform="matrix(0.07469135802469135,0,0,0.07469135802469135,58.10987654320988,0)" xlink:href="#Y"/><use transform="matrix(0.07469135802469135,0,0,0.07469135802469135,74.46728395061727,0)" xlink:href="#Z"/></g><path fill="#333" d="M135-150c-39-12-60 13-60 57V0H25l-1-190h47c2 13-1 29 3 40 6-28 27-53 61-41v41" id="aa"/><g id="d"><use transform="matrix(0.07469135802469135,0,0,0.07469135802469135,0,0)" xlink:href="#Y"/><use transform="matrix(0.07469135802469135,0,0,0.07469135802469135,16.357407407407404,0)" xlink:href="#aa"/></g><path fill="#333" d="M24-248c93 1 206-16 204 79-1 75-69 88-152 82V0H24v-248zm52 121c47 0 100 7 100-41 0-47-54-39-100-39v80" id="ab"/><path fill="#333" d="M128 0H69L1-190h53L99-40l48-150h52" id="ac"/><path fill="#333" d="M25-224v-37h50v37H25zM25 0v-190h50V0H25" id="ad"/><path fill="#333" d="M231 0h-52l-39-155L100 0H48L-1-190h46L77-45c9-52 24-97 36-145h53l37 145 32-145h46" id="ae"/><g id="e"><use transform="matrix(0.07469135802469135,0,0,0.07469135802469135,0,0)" xlink:href="#ab"/><use transform="matrix(0.07469135802469135,0,0,0.07469135802469135,17.925925925925924,0)" xlink:href="#aa"/><use transform="matrix(0.07469135802469135,0,0,0.07469135802469135,28.38271604938271,0)" xlink:href="#V"/><use transform="matrix(0.07469135802469135,0,0,0.07469135802469135,43.32098765432098,0)" xlink:href="#ac"/><use transform="matrix(0.07469135802469135,0,0,0.07469135802469135,58.25925925925925,0)" xlink:href="#ad"/><use transform="matrix(0.07469135802469135,0,0,0.07469135802469135,65.72839506172839,0)" xlink:href="#V"/><use transform="matrix(0.07469135802469135,0,0,0.07469135802469135,80.66666666666666,0)" xlink:href="#ae"/></g><path fill="#333" d="M182-130c37 4 62 22 62 59C244 23 116-4 24 0v-248c84 5 203-23 205 63 0 31-19 50-47 55zM76-148c40-3 101 13 101-30 0-44-60-28-101-31v61zm0 110c48-3 116 14 116-37 0-48-69-32-116-35v72" id="af"/><path fill="#333" d="M85 4C-2 5 27-109 22-190h50c7 57-23 150 33 157 60-5 35-97 40-157h50l1 190h-47c-2-12 1-28-3-38-12 25-28 42-61 42" id="ag"/><path fill="#333" d="M135-194c87-1 58 113 63 194h-50c-7-57 23-157-34-157-59 0-34 97-39 157H25l-1-190h47c2 12-1 28 3 38 12-26 28-41 61-42" id="ah"/><path fill="#333" d="M88-194c31-1 46 15 58 34l-1-101h50l1 261h-48c-2-10 0-23-3-31C134-8 116 4 84 4 32 4 16-41 15-95c0-56 19-97 73-99zm17 164c33 0 40-30 41-66 1-37-9-64-41-64s-38 30-39 65c0 43 13 65 39 65" id="ai"/><g id="f"><use transform="matrix(0.07469135802469135,0,0,0.07469135802469135,0,0)" xlink:href="#af"/><use transform="matrix(0.07469135802469135,0,0,0.07469135802469135,19.34506172839506,0)" xlink:href="#ag"/><use transform="matrix(0.07469135802469135,0,0,0.07469135802469135,35.70246913580246,0)" xlink:href="#ah"/><use transform="matrix(0.07469135802469135,0,0,0.07469135802469135,52.05987654320987,0)" xlink:href="#ai"/><use transform="matrix(0.07469135802469135,0,0,0.07469135802469135,68.41728395061727,0)" xlink:href="#X"/><use transform="matrix(0.07469135802469135,0,0,0.07469135802469135,75.88641975308641,0)" xlink:href="#V"/></g><path fill="#333" d="M67-125c0 53 21 87 73 88 37 1 54-22 65-47l45 17C233-25 199 4 140 4 58 4 20-42 15-125 8-235 124-281 211-232c18 10 29 29 36 50l-46 12c-8-25-30-41-62-41-52 0-71 34-72 86" id="aj"/><path fill="#333" d="M133-34C117-15 103 5 69 4 32 3 11-16 11-54c-1-60 55-63 116-61 1-26-3-47-28-47-18 1-26 9-28 27l-52-2c7-38 36-58 82-57s74 22 75 68l1 82c-1 14 12 18 25 15v27c-30 8-71 5-69-32zm-48 3c29 0 43-24 42-57-32 0-66-3-65 30 0 17 8 27 23 27" id="ak"/><path fill="#333" d="M115-3C79 11 28 4 28-45v-112H4v-33h27l15-45h31v45h36v33H77v99c-1 23 16 31 38 25v30" id="al"/><g id="g"><use transform="matrix(0.07469135802469135,0,0,0.07469135802469135,0,0)" xlink:href="#aj"/><use transform="matrix(0.07469135802469135,0,0,0.07469135802469135,19.34506172839506,0)" xlink:href="#aa"/><use transform="matrix(0.07469135802469135,0,0,0.07469135802469135,29.801851851851847,0)" xlink:href="#V"/><use transform="matrix(0.07469135802469135,0,0,0.07469135802469135,44.740123456790116,0)" xlink:href="#ak"/><use transform="matrix(0.07469135802469135,0,0,0.07469135802469135,59.678395061728374,0)" xlink:href="#al"/><use transform="matrix(0.07469135802469135,0,0,0.07469135802469135,68.56666666666665,0)" xlink:href="#ad"/><use transform="matrix(0.07469135802469135,0,0,0.07469135802469135,76.03580246913579,0)" xlink:href="#Y"/><use transform="matrix(0.07469135802469135,0,0,0.07469135802469135,92.3932098765432,0)" xlink:href="#ah"/></g><path fill="#333" d="M136-208V0H84v-208H4v-40h212v40h-80" id="am"/><path fill="#333" d="M195-6C206 82 75 100 31 46c-4-6-6-13-8-21l49-6c3 16 16 24 34 25 40 0 42-37 40-79-11 22-30 35-61 35-53 0-70-43-70-97 0-56 18-96 73-97 30 0 46 14 59 34l2-30h47zm-90-29c32 0 41-27 41-63 0-35-9-62-40-62-32 0-39 29-40 63 0 36 9 62 39 62" id="an"/><g id="h"><use transform="matrix(0.07469135802469135,0,0,0.07469135802469135,0,0)" xlink:href="#am"/><use transform="matrix(0.07469135802469135,0,0,0.07469135802469135,14.340740740740738,0)" xlink:href="#ak"/><use transform="matrix(0.07469135802469135,0,0,0.07469135802469135,29.279012345679007,0)" xlink:href="#aa"/><use transform="matrix(0.07469135802469135,0,0,0.07469135802469135,39.735802469135784,0)" xlink:href="#an"/><use transform="matrix(0.07469135802469135,0,0,0.07469135802469135,56.0932098765432,0)" xlink:href="#V"/><use transform="matrix(0.07469135802469135,0,0,0.07469135802469135,71.03148148148146,0)" xlink:href="#al"/><use transform="matrix(0.07469135802469135,0,0,0.07469135802469135,79.91975308641975,0)" xlink:href="#ad"/><use transform="matrix(0.07469135802469135,0,0,0.07469135802469135,87.38888888888887,0)" xlink:href="#ah"/><use transform="matrix(0.07469135802469135,0,0,0.07469135802469135,103.74629629629628,0)" xlink:href="#an"/></g><path fill="#333" d="M137-138c1-29-70-34-71-4 15 46 118 7 119 86 1 83-164 76-172 9l43-7c4 19 20 25 44 25 33 8 57-30 24-41C81-84 22-81 20-136c-2-80 154-74 161-7" id="ao"/><g id="i"><use transform="matrix(0.07469135802469135,0,0,0.07469135802469135,0,0)" xlink:href="#aj"/><use transform="matrix(0.07469135802469135,0,0,0.07469135802469135,19.34506172839506,0)" xlink:href="#X"/><use transform="matrix(0.07469135802469135,0,0,0.07469135802469135,26.81419753086419,0)" xlink:href="#ag"/><use transform="matrix(0.07469135802469135,0,0,0.07469135802469135,43.1716049382716,0)" xlink:href="#ao"/><use transform="matrix(0.07469135802469135,0,0,0.07469135802469135,58.109876543209865,0)" xlink:href="#al"/><use transform="matrix(0.07469135802469135,0,0,0.07469135802469135,66.99814814814813,0)" xlink:href="#V"/><use transform="matrix(0.07469135802469135,0,0,0.07469135802469135,81.93641975308638,0)" xlink:href="#aa"/><use transform="matrix(0.07469135802469135,0,0,0.07469135802469135,92.39320987654318,0)" xlink:href="#ao"/></g><path fill="#333" d="M233-177c-1 41-23 64-60 70L243 0h-38l-65-103H63V0H30v-248c88 3 205-21 203 71zM63-129c60-2 137 13 137-47 0-61-80-42-137-45v92" id="ap"/><path fill="#333" d="M135-143c-3-34-86-38-87 0 15 53 115 12 119 90S17 21 10-45l28-5c4 36 97 45 98 0-10-56-113-15-118-90-4-57 82-63 122-42 12 7 21 19 24 35" id="aq"/><path fill="#333" d="M100-194c62-1 85 37 85 99 1 63-27 99-86 99S16-35 15-95c0-66 28-99 85-99zM99-20c44 1 53-31 53-75 0-43-8-75-51-75s-53 32-53 75 10 74 51 75" id="ar"/><path fill="#333" d="M84 4C-5 8 30-112 23-190h32v120c0 31 7 50 39 49 72-2 45-101 50-169h31l1 190h-30c-1-10 1-25-2-33-11 22-28 36-60 37" id="as"/><path fill="#333" d="M114-163C36-179 61-72 57 0H25l-1-190h30c1 12-1 29 2 39 6-27 23-49 58-41v29" id="at"/><path fill="#333" d="M96-169c-40 0-48 33-48 73s9 75 48 75c24 0 41-14 43-38l32 2c-6 37-31 61-74 61-59 0-76-41-82-99-10-93 101-131 147-64 4 7 5 14 7 22l-32 3c-4-21-16-35-41-35" id="au"/><g id="j"><use transform="matrix(0.05,0,0,0.05,0,0)" xlink:href="#ap"/><use transform="matrix(0.05,0,0,0.05,12.950000000000001,0)" xlink:href="#M"/><use transform="matrix(0.05,0,0,0.05,22.950000000000003,0)" xlink:href="#aq"/><use transform="matrix(0.05,0,0,0.05,31.950000000000003,0)" xlink:href="#ar"/><use transform="matrix(0.05,0,0,0.05,41.95,0)" xlink:href="#as"/><use transform="matrix(0.05,0,0,0.05,51.95,0)" xlink:href="#at"/><use transform="matrix(0.05,0,0,0.05,57.900000000000006,0)" xlink:href="#au"/><use transform="matrix(0.05,0,0,0.05,66.9,0)" xlink:href="#M"/><use transform="matrix(0.05,0,0,0.05,76.9,0)" xlink:href="#aq"/></g><path fill="#333" d="M63-220v92h138v28H63V0H30v-248h175v28H63" id="av"/><path fill="#333" d="M85-194c31 0 48 13 60 33l-1-100h32l1 261h-30c-2-10 0-23-3-31C134-8 116 4 85 4 32 4 16-35 15-94c0-66 23-100 70-100zm9 24c-40 0-46 34-46 75 0 40 6 74 45 74 42 0 51-32 51-76 0-42-9-74-50-73" id="aw"/><g id="k"><use transform="matrix(0.05,0,0,0.05,0,0)" xlink:href="#av"/><use transform="matrix(0.05,0,0,0.05,10.950000000000001,0)" xlink:href="#ar"/><use transform="matrix(0.05,0,0,0.05,20.950000000000003,0)" xlink:href="#N"/><use transform="matrix(0.05,0,0,0.05,24.900000000000002,0)" xlink:href="#aw"/><use transform="matrix(0.05,0,0,0.05,34.900000000000006,0)" xlink:href="#M"/><use transform="matrix(0.05,0,0,0.05,44.900000000000006,0)" xlink:href="#at"/></g><linearGradient gradientUnits="userSpaceOnUse" id="l" x1="328.28" y1="224.28" x2="328.28" y2="155.72"><stop offset="0%" stop-color="#0032e4"/><stop offset="81.7%" stop-color="#245aff"/></linearGradient><path fill="#333" d="M160-131c35 5 61 23 61 61C221 17 115-2 30 0v-248c76 3 177-17 177 60 0 33-19 50-47 57zm-97-11c50-1 110 9 110-42 0-47-63-36-110-37v79zm0 115c55-2 124 14 124-45 0-56-70-42-124-44v89" id="ax"/><path fill="#333" d="M117-194c89-4 53 116 60 194h-32v-121c0-31-8-49-39-48C34-167 62-67 57 0H25l-1-190h30c1 10-1 24 2 32 11-22 29-35 61-36" id="ay"/><g id="m"><use transform="matrix(0.05,0,0,0.05,0,0)" xlink:href="#ax"/><use transform="matrix(0.05,0,0,0.05,12,0)" xlink:href="#as"/><use transform="matrix(0.05,0,0,0.05,22,0)" xlink:href="#ay"/><use transform="matrix(0.05,0,0,0.05,32,0)" xlink:href="#aw"/><use transform="matrix(0.05,0,0,0.05,42,0)" xlink:href="#N"/><use transform="matrix(0.05,0,0,0.05,45.95,0)" xlink:href="#M"/></g><linearGradient gradientUnits="userSpaceOnUse" id="n" x1="200" y1="414.05" x2="200" y2="345.49"><stop offset="0%" stop-color="#0032e4"/><stop offset="81.7%" stop-color="#245aff"/></linearGradient><linearGradient gradientUnits="userSpaceOnUse" id="o" x1="328.28" y1="414.05" x2="328.28" y2="345.49"><stop offset="0%" stop-color="#0032e4"/><stop offset="81.7%" stop-color="#245aff"/></linearGradient><path fill="#333" d="M30-248c118-7 216 8 213 122C240-48 200 0 122 0H30v-248zM63-27c89 8 146-16 146-99s-60-101-146-95v194" id="az"/><path fill="#333" d="M115-194c55 1 70 41 70 98S169 2 115 4C84 4 66-9 55-30l1 105H24l-1-265h31l2 30c10-21 28-34 59-34zm-8 174c40 0 45-34 45-75s-6-73-45-74c-42 0-51 32-51 76 0 43 10 73 51 73" id="aA"/><g id="p"><use transform="matrix(0.05,0,0,0.05,0,0)" xlink:href="#ax"/><use transform="matrix(0.05,0,0,0.05,12,0)" xlink:href="#as"/><use transform="matrix(0.05,0,0,0.05,22,0)" xlink:href="#ay"/><use transform="matrix(0.05,0,0,0.05,32,0)" xlink:href="#aw"/><use transform="matrix(0.05,0,0,0.05,42,0)" xlink:href="#N"/><use transform="matrix(0.05,0,0,0.05,45.95,0)" xlink:href="#M"/><use transform="matrix(0.05,0,0,0.05,55.95,0)" xlink:href="#az"/><use transform="matrix(0.05,0,0,0.05,68.9,0)" xlink:href="#M"/><use transform="matrix(0.05,0,0,0.05,78.9,0)" xlink:href="#aA"/><use transform="matrix(0.05,0,0,0.05,88.9,0)" xlink:href="#N"/><use transform="matrix(0.05,0,0,0.05,92.85000000000001,0)" xlink:href="#ar"/><use transform="matrix(0.05,0,0,0.05,102.85000000000001,0)" xlink:href="#S"/><use transform="matrix(0.05,0,0,0.05,111.85000000000001,0)" xlink:href="#O"/><use transform="matrix(0.05,0,0,0.05,126.80000000000001,0)" xlink:href="#M"/><use transform="matrix(0.05,0,0,0.05,136.8,0)" xlink:href="#ay"/><use transform="matrix(0.05,0,0,0.05,146.8,0)" xlink:href="#Q"/></g><linearGradient gradientUnits="userSpaceOnUse" id="q" x1="200" y1="604.28" x2="200" y2="535.72"><stop offset="0%" stop-color="#0032e4"/><stop offset="81.7%" stop-color="#245aff"/></linearGradient><linearGradient gradientUnits="userSpaceOnUse" id="r" x1="725.01" y1="210.04" x2="725.01" y2="140"><stop offset="0%" stop-color="#0032e4"/><stop offset="81.7%" stop-color="#245aff"/></linearGradient><path d="M715 0H502L69-1082h202c94 253 197 500 285 758 19 57 36 126 52 183 96-335 234-626 350-941h201" id="aB"/><path d="M1000-272c3 95 12 159 101 161 21 0 41-3 59-7V-6c-44 10-86 16-139 16-141 2-191-84-197-217h-6C748-76 648 20 446 20c-207 0-318-120-318-322 0-266 194-348 454-354l236-4c12-191-40-305-222-305-140 0-220 47-232 172l-188-17c33-204 181-292 423-292 255 0 401 118 401 364v466zm-683-27c0 109 63 184 175 182 166-3 259-96 306-217 24-65 20-120 20-200-232 7-501-28-501 235" id="aC"/><path d="M736-142h380V0H134v-142h422v-1200H267v-142h469v1342" id="aD"/><path d="M528 20c-247 0-343-132-343-381v-721h180v686c-4 177 45 284 224 277 194-8 279-136 279-336v-627h181c3 360-6 732 6 1082H885c-4-54-7-126-8-185h-3C809-64 714 20 528 20" id="aE"/><path d="M617-1102c355 0 481 238 477 599H322c5 222 84 388 301 388 144 0 244-59 284-166l158 45C1002-72 854 20 623 20c-342 0-490-220-490-568 0-346 151-554 484-554zm291 461c-18-192-90-328-289-328-194 0-287 128-295 328h584" id="aF"/><path d="M873-819c-18-114-119-146-250-146-163 0-245 50-245 151 0 151 170 148 294 185 182 54 388 94 388 320 0 240-189 325-439 329-245 4-410-69-454-268l159-31c24 133 136 168 295 165 144-2 270-31 270-171 0-164-195-160-331-202-167-52-350-87-350-299 0-218 173-315 413-313 220 2 373 77 412 260" id="aG"/><path d="M385-1193v494h676v158H385V0H194v-1349h891v156H385" id="aH"/><path d="M745-142h380V0H143v-142h422v-798H246v-142h499v940zM545-1292v-192h200v192H545" id="aI"/><path d="M496 0v-299h235V0H496zm0-783v-299h235v299H496" id="aJ"/><g id="s"><use transform="matrix(0.0087890625,0,0,0.0087890625,0,0)" xlink:href="#aB"/><use transform="matrix(0.0087890625,0,0,0.0087890625,10.8017578125,0)" xlink:href="#aC"/><use transform="matrix(0.0087890625,0,0,0.0087890625,21.603515625,0)" xlink:href="#aD"/><use transform="matrix(0.0087890625,0,0,0.0087890625,32.4052734375,0)" xlink:href="#aE"/><use transform="matrix(0.0087890625,0,0,0.0087890625,43.20703125,0)" xlink:href="#aF"/><use transform="matrix(0.0087890625,0,0,0.0087890625,54.0087890625,0)" xlink:href="#aG"/><use transform="matrix(0.0087890625,0,0,0.0087890625,64.810546875,0)" xlink:href="#aH"/><use transform="matrix(0.0087890625,0,0,0.0087890625,75.6123046875,0)" xlink:href="#aI"/><use transform="matrix(0.0087890625,0,0,0.0087890625,86.4140625,0)" xlink:href="#aD"/><use transform="matrix(0.0087890625,0,0,0.0087890625,97.2158203125,0)" xlink:href="#aF"/><use transform="matrix(0.0087890625,0,0,0.0087890625,108.017578125,0)" xlink:href="#aJ"/></g><path d="M496 0v-299h235V0H496" id="aK"/><path d="M168 279c222 39 310-114 368-290L66-1082h192c120 299 249 590 362 896 115-301 235-597 351-896h190L705 0c-65 164-130 320-275 396-67 36-177 35-262 18V279" id="aL"/><path d="M904-1102c199 0 220 177 220 381V0H956v-686c-3-114 0-215-60-264-70-33-125-4-158 71-26 56-39 140-39 252V0H531v-686c-3-114-1-215-61-264-78-41-136 24-157 84-24 69-39 159-39 259V0H105c-3-360 6-732-6-1082h149c6 50 3 123 8 175 36-100 83-195 216-195 135 0 166 79 196 196 42-105 93-196 236-196" id="aM"/><g id="t"><use transform="matrix(0.0087890625,0,0,0.0087890625,0,0)" xlink:href="#aB"/><use transform="matrix(0.0087890625,0,0,0.0087890625,10.8017578125,0)" xlink:href="#aC"/><use transform="matrix(0.0087890625,0,0,0.0087890625,21.603515625,0)" xlink:href="#aD"/><use transform="matrix(0.0087890625,0,0,0.0087890625,32.4052734375,0)" xlink:href="#aE"/><use transform="matrix(0.0087890625,0,0,0.0087890625,43.20703125,0)" xlink:href="#aF"/><use transform="matrix(0.0087890625,0,0,0.0087890625,54.0087890625,0)" xlink:href="#aG"/><use transform="matrix(0.0087890625,0,0,0.0087890625,64.810546875,0)" xlink:href="#aH"/><use transform="matrix(0.0087890625,0,0,0.0087890625,75.6123046875,0)" xlink:href="#aK"/><use transform="matrix(0.0087890625,0,0,0.0087890625,86.4140625,0)" xlink:href="#aL"/><use transform="matrix(0.0087890625,0,0,0.0087890625,97.2158203125,0)" xlink:href="#aC"/><use transform="matrix(0.0087890625,0,0,0.0087890625,108.017578125,0)" xlink:href="#aM"/><use transform="matrix(0.0087890625,0,0,0.0087890625,118.8193359375,0)" xlink:href="#aD"/></g><linearGradient gradientUnits="userSpaceOnUse" id="u" x1="1065.01" y1="210.04" x2="1065.01" y2="140"><stop offset="0%" stop-color="#0032e4"/><stop offset="81.7%" stop-color="#245aff"/></linearGradient><path d="M682 16c-209 0-323-80-324-285v-671H190v-142h170l58-282h120v282h432v142H538v652c2 114 60 155 182 155 106 0 209-16 297-34v137C921-4 806 16 682 16" id="aN"/><path d="M698-1104c312 3 392 244 392 558 0 315-82 566-392 566-169 0-277-65-331-184h-5c8 188 2 394 4 589H185V-858c0-76-1-156-6-224h175c6 52 9 120 10 178h4c58-122 150-202 330-200zm-49 991c225 0 255-203 255-433 0-225-32-419-253-419-236 0-285 192-285 441 0 237 53 411 283 411" id="aO"/><path d="M114 20l821-1504h178L296 20H114" id="aP"/><g id="v"><use transform="matrix(0.008680555555555556,0,0,0.008680555555555556,0,0)" xlink:href="#aN"/><use transform="matrix(0.008680555555555556,0,0,0.008680555555555556,10.668402777777779,0)" xlink:href="#aF"/><use transform="matrix(0.008680555555555556,0,0,0.008680555555555556,21.336805555555557,0)" xlink:href="#aM"/><use transform="matrix(0.008680555555555556,0,0,0.008680555555555556,32.005208333333336,0)" xlink:href="#aO"/><use transform="matrix(0.008680555555555556,0,0,0.008680555555555556,42.673611111111114,0)" xlink:href="#aD"/><use transform="matrix(0.008680555555555556,0,0,0.008680555555555556,53.34201388888889,0)" xlink:href="#aC"/><use transform="matrix(0.008680555555555556,0,0,0.008680555555555556,64.01041666666667,0)" xlink:href="#aN"/><use transform="matrix(0.008680555555555556,0,0,0.008680555555555556,74.67881944444446,0)" xlink:href="#aF"/><use transform="matrix(0.008680555555555556,0,0,0.008680555555555556,85.34722222222223,0)" xlink:href="#aG"/><use transform="matrix(0.008680555555555556,0,0,0.008680555555555556,96.015625,0)" xlink:href="#aP"/></g><linearGradient gradientUnits="userSpaceOnUse" id="w" x1="600" y1="210.04" x2="600" y2="140"><stop offset="0%" stop-color="#0032e4"/><stop offset="81.7%" stop-color="#245aff"/></linearGradient><g id="x"><use transform="matrix(0.0087890625,0,0,0.0087890625,0,0)" xlink:href="#aB"/><use transform="matrix(0.0087890625,0,0,0.0087890625,10.8017578125,0)" xlink:href="#aC"/><use transform="matrix(0.0087890625,0,0,0.0087890625,21.603515625,0)" xlink:href="#aD"/><use transform="matrix(0.0087890625,0,0,0.0087890625,32.4052734375,0)" xlink:href="#aE"/><use transform="matrix(0.0087890625,0,0,0.0087890625,43.20703125,0)" xlink:href="#aF"/><use transform="matrix(0.0087890625,0,0,0.0087890625,54.0087890625,0)" xlink:href="#aG"/><use transform="matrix(0.0087890625,0,0,0.0087890625,64.810546875,0)" xlink:href="#aJ"/></g><path d="M677 91c1 136 41 195 171 195h213v139H796c-186-8-294-116-294-303v-351c-3-164-120-222-275-232v-137c155-10 275-69 275-231v-352c6-189 106-303 294-303h265v139H848c-126-3-171 67-171 195v346c-5 158-108 234-231 274 128 36 231 115 231 274V91" id="aQ"/><path d="M726 122c-7 187-108 303-294 303H167V286h213c129-2 172-59 172-195v-347c5-160 106-236 230-276-125-36-230-116-230-272v-346c2-128-45-195-172-195H167v-139h265c187 7 294 114 294 303v352c4 162 120 221 275 231v137c-155 10-275 68-275 232v351" id="aR"/><g id="y"><use transform="matrix(0.0087890625,0,0,0.0087890625,0,0)" xlink:href="#aQ"/><use transform="matrix(0.0087890625,0,0,0.0087890625,10.8017578125,0)" xlink:href="#aR"/></g><linearGradient gradientUnits="userSpaceOnUse" id="z" x1="925.01" y1="210.04" x2="925.01" y2="140"><stop offset="0%" stop-color="#0032e4"/><stop offset="81.7%" stop-color="#245aff"/></linearGradient><g id="A"><use transform="matrix(0.0087890625,0,0,0.0087890625,0,0)" xlink:href="#aB"/><use transform="matrix(0.0087890625,0,0,0.0087890625,10.8017578125,0)" xlink:href="#aC"/><use transform="matrix(0.0087890625,0,0,0.0087890625,21.603515625,0)" xlink:href="#aD"/><use transform="matrix(0.0087890625,0,0,0.0087890625,32.4052734375,0)" xlink:href="#aE"/><use transform="matrix(0.0087890625,0,0,0.0087890625,43.20703125,0)" xlink:href="#aF"/><use transform="matrix(0.0087890625,0,0,0.0087890625,54.0087890625,0)" xlink:href="#aG"/><use transform="matrix(0.0087890625,0,0,0.0087890625,64.810546875,0)" xlink:href="#aK"/><use transform="matrix(0.0087890625,0,0,0.0087890625,75.6123046875,0)" xlink:href="#aL"/><use transform="matrix(0.0087890625,0,0,0.0087890625,86.4140625,0)" xlink:href="#aC"/><use transform="matrix(0.0087890625,0,0,0.0087890625,97.2158203125,0)" xlink:href="#aM"/><use transform="matrix(0.0087890625,0,0,0.0087890625,108.017578125,0)" xlink:href="#aD"/></g><g id="B"><use transform="matrix(0.05,0,0,0.05,0,0)" xlink:href="#P"/><use transform="matrix(0.05,0,0,0.05,5,0)" xlink:href="#at"/><use transform="matrix(0.05,0,0,0.05,10.95,0)" xlink:href="#ar"/><use transform="matrix(0.05,0,0,0.05,20.95,0)" xlink:href="#O"/></g><path fill="#333" d="M47-170H22l-4-78h33" id="aS"/><g id="C"><use transform="matrix(0.05,0,0,0.05,0,0)" xlink:href="#P"/><use transform="matrix(0.05,0,0,0.05,5,0)" xlink:href="#N"/><use transform="matrix(0.05,0,0,0.05,8.95,0)" xlink:href="#M"/><use transform="matrix(0.05,0,0,0.05,18.95,0)" xlink:href="#M"/><use transform="matrix(0.05,0,0,0.05,28.950000000000003,0)" xlink:href="#Q"/><use transform="matrix(0.05,0,0,0.05,33.95,0)" xlink:href="#R"/><use transform="matrix(0.05,0,0,0.05,38.95,0)" xlink:href="#S"/><use transform="matrix(0.05,0,0,0.05,47.95,0)" xlink:href="#T"/><use transform="matrix(0.05,0,0,0.05,57.95,0)" xlink:href="#O"/><use transform="matrix(0.05,0,0,0.05,72.9,0)" xlink:href="#N"/><use transform="matrix(0.05,0,0,0.05,76.85000000000001,0)" xlink:href="#aS"/><use transform="matrix(0.05,0,0,0.05,80.25000000000001,0)" xlink:href="#aq"/></g><path fill="#333" d="M108 0H70L1-190h34L89-25l56-165h34" id="aT"/><g id="D"><use transform="matrix(0.05,0,0,0.05,0,0)" xlink:href="#L"/><use transform="matrix(0.05,0,0,0.05,10,0)" xlink:href="#M"/><use transform="matrix(0.05,0,0,0.05,20,0)" xlink:href="#N"/><use transform="matrix(0.05,0,0,0.05,23.95,0)" xlink:href="#O"/><use transform="matrix(0.05,0,0,0.05,38.9,0)" xlink:href="#R"/><use transform="matrix(0.05,0,0,0.05,43.9,0)" xlink:href="#aT"/><use transform="matrix(0.05,0,0,0.05,52.900000000000006,0)" xlink:href="#T"/><use transform="matrix(0.05,0,0,0.05,62.900000000000006,0)" xlink:href="#N"/><use transform="matrix(0.05,0,0,0.05,66.85,0)" xlink:href="#as"/><use transform="matrix(0.05,0,0,0.05,76.85,0)" xlink:href="#M"/><use transform="matrix(0.05,0,0,0.05,86.85,0)" xlink:href="#aq"/></g><path fill="#333" d="M212-179c-10-28-35-45-73-45-59 0-87 40-87 99 0 60 29 101 89 101 43 0 62-24 78-52l27 14C228-24 195 4 139 4 59 4 22-46 18-125c-6-104 99-153 187-111 19 9 31 26 39 46" id="aU"/><g id="E"><use transform="matrix(0.05,0,0,0.05,0,0)" xlink:href="#aU"/><use transform="matrix(0.05,0,0,0.05,12.950000000000001,0)" xlink:href="#N"/><use transform="matrix(0.05,0,0,0.05,16.900000000000002,0)" xlink:href="#as"/><use transform="matrix(0.05,0,0,0.05,26.900000000000002,0)" xlink:href="#aq"/><use transform="matrix(0.05,0,0,0.05,35.900000000000006,0)" xlink:href="#Q"/><use transform="matrix(0.05,0,0,0.05,40.900000000000006,0)" xlink:href="#M"/><use transform="matrix(0.05,0,0,0.05,50.900000000000006,0)" xlink:href="#at"/></g><g id="F"><use transform="matrix(0.05,0,0,0.05,0,0)" xlink:href="#aw"/><use transform="matrix(0.05,0,0,0.05,10,0)" xlink:href="#T"/><use transform="matrix(0.05,0,0,0.05,20,0)" xlink:href="#Q"/><use transform="matrix(0.05,0,0,0.05,25,0)" xlink:href="#T"/></g><linearGradient gradientUnits="userSpaceOnUse" id="G" x1="740" y1="409.77" x2="740" y2="329.8"><stop offset="0%" stop-color="#198ab3"/><stop offset="61.9%" stop-color="#31d0f1"/><stop offset="100%" stop-color="#32d4f5"/></linearGradient><path d="M127-220V0H93v-220H8v-28h204v28h-85" id="aV"/><path d="M100-194c63 0 86 42 84 106H49c0 40 14 67 53 68 26 1 43-12 49-29l28 8c-11 28-37 45-77 45C44 4 14-33 15-96c1-61 26-98 85-98zm52 81c6-60-76-77-97-28-3 7-6 17-6 28h103" id="aW"/><path d="M210-169c-67 3-38 105-44 169h-31v-121c0-29-5-50-35-48C34-165 62-65 56 0H25l-1-190h30c1 10-1 24 2 32 10-44 99-50 107 0 11-21 27-35 58-36 85-2 47 119 55 194h-31v-121c0-29-5-49-35-48" id="aX"/><path d="M115-194c55 1 70 41 70 98S169 2 115 4C84 4 66-9 55-30l1 105H24l-1-265h31l2 30c10-21 28-34 59-34zm-8 174c40 0 45-34 45-75s-6-73-45-74c-42 0-51 32-51 76 0 43 10 73 51 73" id="aY"/><path d="M24 0v-261h32V0H24" id="aZ"/><path d="M141-36C126-15 110 5 73 4 37 3 15-17 15-53c-1-64 63-63 125-63 3-35-9-54-41-54-24 1-41 7-42 31l-33-3c5-37 33-52 76-52 45 0 72 20 72 64v82c-1 20 7 32 28 27v20c-31 9-61-2-59-35zM48-53c0 20 12 33 32 33 41-3 63-29 60-74-43 2-92-5-92 41" id="ba"/><path d="M59-47c-2 24 18 29 38 22v24C64 9 27 4 27-40v-127H5v-23h24l9-43h21v43h35v23H59v120" id="bb"/><g id="H"><use transform="matrix(0.05,0,0,0.05,0,0)" xlink:href="#aV"/><use transform="matrix(0.05,0,0,0.05,8.950000000000001,0)" xlink:href="#aW"/><use transform="matrix(0.05,0,0,0.05,18.950000000000003,0)" xlink:href="#aX"/><use transform="matrix(0.05,0,0,0.05,33.900000000000006,0)" xlink:href="#aY"/><use transform="matrix(0.05,0,0,0.05,43.900000000000006,0)" xlink:href="#aZ"/><use transform="matrix(0.05,0,0,0.05,47.85000000000001,0)" xlink:href="#ba"/><use transform="matrix(0.05,0,0,0.05,57.85,0)" xlink:href="#bb"/><use transform="matrix(0.05,0,0,0.05,62.85,0)" xlink:href="#aW"/></g><path d="M101-234c-31-9-42 10-38 44h38v23H63V0H32v-167H5v-23h27c-7-52 17-82 69-68v24" id="bc"/><path d="M84 4C-5 8 30-112 23-190h32v120c0 31 7 50 39 49 72-2 45-101 50-169h31l1 190h-30c-1-10 1-25-2-33-11 22-28 36-60 37" id="bd"/><path d="M117-194c89-4 53 116 60 194h-32v-121c0-31-8-49-39-48C34-167 62-67 57 0H25l-1-190h30c1 10-1 24 2 32 11-22 29-35 61-36" id="be"/><path d="M96-169c-40 0-48 33-48 73s9 75 48 75c24 0 41-14 43-38l32 2c-6 37-31 61-74 61-59 0-76-41-82-99-10-93 101-131 147-64 4 7 5 14 7 22l-32 3c-4-21-16-35-41-35" id="bf"/><path d="M24-231v-30h32v30H24zM24 0v-190h32V0H24" id="bg"/><path d="M100-194c62-1 85 37 85 99 1 63-27 99-86 99S16-35 15-95c0-66 28-99 85-99zM99-20c44 1 53-31 53-75 0-43-8-75-51-75s-53 32-53 75 10 74 51 75" id="bh"/><path d="M135-143c-3-34-86-38-87 0 15 53 115 12 119 90S17 21 10-45l28-5c4 36 97 45 98 0-10-56-113-15-118-90-4-57 82-63 122-42 12 7 21 19 24 35" id="bi"/><g id="I"><use transform="matrix(0.05,0,0,0.05,0,0)" xlink:href="#bc"/><use transform="matrix(0.05,0,0,0.05,5,0)" xlink:href="#bd"/><use transform="matrix(0.05,0,0,0.05,15,0)" xlink:href="#be"/><use transform="matrix(0.05,0,0,0.05,25,0)" xlink:href="#bf"/><use transform="matrix(0.05,0,0,0.05,34,0)" xlink:href="#bb"/><use transform="matrix(0.05,0,0,0.05,39,0)" xlink:href="#bg"/><use transform="matrix(0.05,0,0,0.05,42.95,0)" xlink:href="#bh"/><use transform="matrix(0.05,0,0,0.05,52.95,0)" xlink:href="#be"/><use transform="matrix(0.05,0,0,0.05,62.95,0)" xlink:href="#bi"/></g><path fill="#333" d="M206 0h-36l-40-164L89 0H53L-1-190h32L70-26l43-164h34l41 164 42-164h31" id="bj"/><g id="J"><use transform="matrix(0.05,0,0,0.05,0,0)" xlink:href="#aw"/><use transform="matrix(0.05,0,0,0.05,10,0)" xlink:href="#ar"/><use transform="matrix(0.05,0,0,0.05,20,0)" xlink:href="#bj"/><use transform="matrix(0.05,0,0,0.05,32.95,0)" xlink:href="#ay"/><use transform="matrix(0.05,0,0,0.05,42.95,0)" xlink:href="#aq"/><use transform="matrix(0.05,0,0,0.05,51.95,0)" xlink:href="#Q"/><use transform="matrix(0.05,0,0,0.05,56.95,0)" xlink:href="#at"/><use transform="matrix(0.05,0,0,0.05,62.900000000000006,0)" xlink:href="#M"/><use transform="matrix(0.05,0,0,0.05,72.9,0)" xlink:href="#T"/><use transform="matrix(0.05,0,0,0.05,82.9,0)" xlink:href="#O"/></g><path fill="#3a414a" d="M715 0H502L69-1082h202c94 253 197 500 285 758 19 57 36 126 52 183 96-335 234-626 350-941h201" id="bk"/><path fill="#3a414a" d="M1000-272c3 95 12 159 101 161 21 0 41-3 59-7V-6c-44 10-86 16-139 16-141 2-191-84-197-217h-6C748-76 648 20 446 20c-207 0-318-120-318-322 0-266 194-348 454-354l236-4c12-191-40-305-222-305-140 0-220 47-232 172l-188-17c33-204 181-292 423-292 255 0 401 118 401 364v466zm-683-27c0 109 63 184 175 182 166-3 259-96 306-217 24-65 20-120 20-200-232 7-501-28-501 235" id="bl"/><path fill="#3a414a" d="M736-142h380V0H134v-142h422v-1200H267v-142h469v1342" id="bm"/><path fill="#3a414a" d="M528 20c-247 0-343-132-343-381v-721h180v686c-4 177 45 284 224 277 194-8 279-136 279-336v-627h181c3 360-6 732 6 1082H885c-4-54-7-126-8-185h-3C809-64 714 20 528 20" id="bn"/><path fill="#3a414a" d="M617-1102c355 0 481 238 477 599H322c5 222 84 388 301 388 144 0 244-59 284-166l158 45C1002-72 854 20 623 20c-342 0-490-220-490-568 0-346 151-554 484-554zm291 461c-18-192-90-328-289-328-194 0-287 128-295 328h584" id="bo"/><path fill="#3a414a" d="M873-819c-18-114-119-146-250-146-163 0-245 50-245 151 0 151 170 148 294 185 182 54 388 94 388 320 0 240-189 325-439 329-245 4-410-69-454-268l159-31c24 133 136 168 295 165 144-2 270-31 270-171 0-164-195-160-331-202-167-52-350-87-350-299 0-218 173-315 413-313 220 2 373 77 412 260" id="bp"/><path fill="#3a414a" d="M385-1193v494h676v158H385V0H194v-1349h891v156H385" id="bq"/><path fill="#3a414a" d="M839-1102c70 0 148 7 206 17v167c-112-18-268-36-363 15-129 69-208 203-208 395V0H294c-10-367 32-789-52-1082h171c21 75 41 161 48 250h5c67-152 152-270 373-270" id="br"/><path fill="#3a414a" d="M615-1102c343 0 484 203 482 560-1 347-147 562-488 562-336 0-475-219-479-562-4-349 156-560 485-560zm-8 989c240 0 301-180 301-429 0-245-55-427-290-427-236 0-299 181-299 427 0 243 61 429 288 429" id="bs"/><path fill="#3a414a" d="M904-1102c199 0 220 177 220 381V0H956v-686c-3-114 0-215-60-264-70-33-125-4-158 71-26 56-39 140-39 252V0H531v-686c-3-114-1-215-61-264-78-41-136 24-157 84-24 69-39 159-39 259V0H105c-3-360 6-732-6-1082h149c6 50 3 123 8 175 36-100 83-195 216-195 135 0 166 79 196 196 42-105 93-196 236-196" id="bt"/><path fill="#3a414a" d="M496 0v-299h235V0H496zm0-783v-299h235v299H496" id="bu"/><g id="K"><use transform="matrix(0.008680555555555556,0,0,0.008680555555555556,0,0)" xlink:href="#bk"/><use transform="matrix(0.008680555555555556,0,0,0.008680555555555556,10.668402777777779,0)" xlink:href="#bl"/><use transform="matrix(0.008680555555555556,0,0,0.008680555555555556,21.336805555555557,0)" xlink:href="#bm"/><use transform="matrix(0.008680555555555556,0,0,0.008680555555555556,32.005208333333336,0)" xlink:href="#bn"/><use transform="matrix(0.008680555555555556,0,0,0.008680555555555556,42.673611111111114,0)" xlink:href="#bo"/><use transform="matrix(0.008680555555555556,0,0,0.008680555555555556,53.34201388888889,0)" xlink:href="#bp"/><use transform="matrix(0.008680555555555556,0,0,0.008680555555555556,64.01041666666667,0)" xlink:href="#bq"/><use transform="matrix(0.008680555555555556,0,0,0.008680555555555556,74.67881944444446,0)" xlink:href="#br"/><use transform="matrix(0.008680555555555556,0,0,0.008680555555555556,85.34722222222223,0)" xlink:href="#bs"/><use transform="matrix(0.008680555555555556,0,0,0.008680555555555556,96.015625,0)" xlink:href="#bt"/><use transform="matrix(0.008680555555555556,0,0,0.008680555555555556,106.68402777777777,0)" xlink:href="#bu"/></g></defs></g></svg>