<svg xmlns="http://www.w3.org/2000/svg" xmlns:xlink="http://www.w3.org/1999/xlink" xmlns:lucid="lucid" width="1241" height="689.41"><g transform="translate(-139.5 -110.55713098803224)" lucid:page-tab-id="hOQ3w~KK_m8X"><path d="M160 387.47a8 8 0 0 1 8-8h564a8 8 0 0 1 8 8v369.5a8 8 0 0 1-8 8H168a8 8 0 0 1-8-8zM780 382.5a8 8 0 0 1 8-8h564a8 8 0 0 1 8 8V752a8 8 0 0 1-8 8H788a8 8 0 0 1-8-8z" stroke="#333" fill="#fff"/><path d="M1069.75 134.8c-.84.1-1.5.26-2.17.6l-28.94 14.26c-1.6.75-2.67 2.08-3 3.83l-7.18 32.1c-.33 1.5-.08 3 .75 4.34.1.17.18.25.35.42l20.02 25.68c1.08 1.42 2.58 2.17 4.33 2.17h32.2c1.75 0 3.25-.74 4.33-2.16l20.02-25.68c1.1-1.42 1.5-3.1 1.1-4.84l-7.2-32.03c-.32-1.76-1.4-3.1-3-3.84l-28.93-14.26c-.92-.42-1.75-.67-2.67-.6z" stroke="#000" stroke-opacity="0" stroke-width="3.83" fill="#1071e5"/><path d="M1069.74 132.5c-.88.07-1.6.25-2.3.6l-30.55 15.06c-1.68.8-2.82 2.2-3.17 4.05l-7.58 33.9c-.35 1.6-.08 3.18.8 4.6.08.16.17.25.35.43l21.13 27.1c1.14 1.5 2.73 2.3 4.58 2.3h34c1.84 0 3.43-.8 4.57-2.3l21.13-27.1c1.15-1.5 1.6-3.26 1.15-5.02l-7.58-33.9c-.35-1.84-1.5-3.25-3.16-4.04l-30.55-15.06c-.96-.44-1.85-.7-2.8-.6zm0 2.37c.96-.1 1.76.08 2.64.52l29.05 14.26c1.5.8 2.55 2.1 3 3.87l7.13 32.05c.35 1.76 0 3.34-1.06 4.75l-20.07 25.7c-1.06 1.42-2.56 2.2-4.32 2.2h-32.2c-1.77 0-3.27-.78-4.33-2.2l-20.07-25.7c-.1-.1-.18-.26-.27-.44-.88-1.33-1.14-2.74-.8-4.32l7.14-32.05c.45-1.76 1.4-3.08 3-3.87l29.05-14.27c.7-.36 1.32-.53 2.12-.62z" stroke="#000" stroke-opacity="0" stroke-width="3.83" fill="#fff"/><path d="M1062.5 207.38c0 1 .15 1.73.45 2.2.3.5.77.73 1.38.73.43 0 .8-.1 1.07-.35.3-.24.48-.6.54-1.1l1.23.07c-.1.73-.4 1.3-.9 1.73-.5.43-1.13.65-1.9.65-1.03 0-1.8-.33-2.34-1-.54-.66-.8-1.63-.8-2.9 0-1.26.26-2.22.8-2.9.54-.65 1.3-.98 2.32-.98.74 0 1.36.2 1.85.6.5.4.8.94.92 1.64l-1.24.1c-.06-.42-.22-.76-.48-1-.25-.25-.62-.36-1.1-.36-.63 0-1.1.22-1.38.65-.3.44-.43 1.18-.43 2.23zM1068.48 211.16v-5.75c0-.52 0-1.1-.04-1.74h1.15l.04 1.53h.03c.2-.65.4-1.1.66-1.33.26-.24.6-.35 1.07-.35.16 0 .32.02.5.07v1.14c-.18-.05-.4-.07-.66-.07-.5 0-.88.22-1.15.67-.27.44-.4 1.08-.4 1.9v3.92zM1077.65 209.95c-.22.48-.52.83-.9 1.04-.36.2-.82.3-1.37.3-.9 0-1.6-.33-2.03-.96-.42-.64-.64-1.6-.64-2.9 0-2.62.9-3.92 2.68-3.92.56 0 1 .1 1.4.3.35.22.65.56.87 1v-3.96h1.2v8.74c0 .8.03 1.3.05 1.56h-1.16l-.04-.52-.02-.7zm-3.67-2.55c0 1.05.13 1.8.4 2.25.27.46.7.7 1.3.7.7 0 1.2-.26 1.5-.75.32-.5.47-1.25.47-2.28 0-1-.15-1.72-.46-2.18-.32-.46-.8-.7-1.5-.7-.6 0-1.04.24-1.32.7-.27.47-.4 1.22-.4 2.26z" stroke="#000" stroke-opacity="0" fill="#fff"/><path d="M1090.8 170.73h-3.37v-9.27c0-2.6-2.03-4.68-4.54-4.68h-9v-3.47c0-3.2-2.56-5.8-5.64-5.8-3.12 0-5.63 2.6-5.63 5.8v3.48h-9.04c-2.47 0-4.5 2.1-4.5 4.68v8.83h3.35c3.36 0 6.1 2.77 6.1 6.24 0 3.46-2.74 6.3-6.1 6.3h-3.36v8.82c0 2.54 2.03 4.64 4.5 4.64h8.56v-3.47c0-3.46 2.74-6.3 6.1-6.3 3.36 0 6.06 2.84 6.06 6.3v3.47h8.57c2.5 0 4.53-2.1 4.53-4.64v-9.32h3.36c3.12 0 5.63-2.58 5.63-5.8 0-3.17-2.5-5.8-5.64-5.8z" stroke="#000" stroke-opacity="0" stroke-width="1.74" fill="#fff"/><use xlink:href="#a" transform="matrix(1,0,0,1,995.9777777777776,229.53175790085604) translate(-8.774999999999991 14.4)"/><path d="M1259.77 402.1c-.76.1-1.36.24-1.97.54l-26.3 12.96c-1.43.68-2.42 1.9-2.72 3.5l-6.52 29.16c-.3 1.37-.08 2.73.68 3.94.08.15.15.23.3.38l18.2 23.34c.98 1.3 2.34 1.97 3.93 1.97h29.26c1.6 0 2.95-.7 3.94-1.98l18.2-23.34c.97-1.3 1.35-2.8.97-4.4l-6.52-29.1c-.3-1.58-1.3-2.8-2.73-3.48l-26.3-12.96c-.84-.38-1.6-.6-2.43-.53z" stroke="#000" stroke-opacity="0" stroke-width="3.83" fill="#326ce5"/><path d="M1259.76 400c-.8.08-1.44.24-2.08.56l-27.76 13.68c-1.52.72-2.56 2-2.88 3.68l-6.88 30.8c-.32 1.44-.08 2.88.72 4.16.08.16.16.24.32.4l19.2 24.64c1.04 1.36 2.48 2.08 4.16 2.08h30.88c1.68 0 3.12-.72 4.16-2.08l19.2-24.64c1.04-1.36 1.44-2.96 1.04-4.56l-6.88-30.8c-.32-1.68-1.36-2.96-2.88-3.68l-27.76-13.68c-.88-.4-1.68-.64-2.56-.56zm0 2.16c.88-.08 1.6.08 2.4.48l26.4 12.96c1.36.72 2.32 1.92 2.72 3.52l6.48 29.12c.32 1.6 0 3.04-.96 4.32l-18.24 23.36c-.96 1.28-2.32 2-3.92 2h-29.28c-1.6 0-2.96-.72-3.92-2l-18.24-23.36c-.08-.08-.16-.24-.24-.4-.8-1.2-1.04-2.48-.72-3.92l6.48-29.12c.4-1.6 1.28-2.8 2.72-3.52l26.4-12.96c.64-.32 1.2-.48 1.92-.56z" stroke="#000" stroke-opacity="0" stroke-width="3.83" fill="#fff"/><path d="M1259.26 469.6c0 .64-.24 1.14-.7 1.5-.48.33-1.13.5-2 .5-.8 0-1.44-.13-1.9-.4-.43-.3-.72-.72-.86-1.32l.97-.2c.1.37.3.64.58.82.3.17.7.25 1.22.25.57 0 .97-.1 1.23-.27s.4-.44.4-.8c0-.26-.1-.48-.28-.65-.18-.16-.47-.3-.87-.4l-.8-.23c-.62-.16-1.07-.33-1.34-.5-.25-.15-.46-.35-.6-.58-.16-.23-.24-.52-.24-.85 0-.62.22-1.1.65-1.4.44-.35 1.07-.5 1.9-.5.72 0 1.3.13 1.73.4.43.25.7.68.8 1.26l-.98.13c-.06-.3-.22-.54-.5-.7-.26-.16-.6-.24-1.06-.24-.5 0-.88.08-1.1.23-.25.16-.37.4-.37.7 0 .2.05.36.15.5.1.1.24.22.43.3.2.1.6.22 1.22.37.6.15 1 .3 1.26.43.26.12.46.26.6.42.16.15.28.33.36.54.08.2.12.44.12.7zM1262.24 471.6c-.66 0-1.16-.18-1.5-.54-.33-.36-.5-.85-.5-1.48 0-.7.23-1.24.68-1.63.45-.37 1.17-.57 2.17-.6l1.48-.03v-.37c0-.55-.12-.95-.34-1.2-.23-.23-.6-.35-1.08-.35-.5 0-.85.1-1.07.27-.24.16-.37.44-.42.8l-1.14-.1c.18-1.2 1.06-1.83 2.64-1.83.83 0 1.46.2 1.88.6.42.38.63.95.63 1.7v2.93c0 .33.04.6.12.76.08.17.25.25.5.25.1 0 .2 0 .35-.04v.7c-.28.07-.56.1-.85.1-.4 0-.7-.1-.9-.32-.17-.23-.28-.57-.3-1.04h-.04c-.28.52-.6.9-.98 1.1-.38.22-.83.33-1.36.33zm.25-.84c.4 0 .75-.1 1.06-.28.32-.2.56-.46.74-.78.2-.33.28-.67.28-1.02v-.56l-1.2.02c-.52 0-.92.07-1.2.17-.25.1-.45.26-.6.47-.14.22-.2.5-.2.83 0 .37.1.65.28.86.2.2.47.3.83.3z" stroke="#000" stroke-opacity="0" fill="#fff"/><path d="M1260 414.7l-17.92 8.2v12.33c0 11.38 7.63 22.04 17.92 24.62 10.3-2.58 17.92-13.24 17.92-24.62V422.9zm0 8.7c2.33 0 4.4 1.45 5.3 3.6.9 2.23.4 4.8-1.25 6.47s-4.1 2.2-6.24 1.27c-2.14-.9-3.53-3.03-3.53-5.42 0-3.3 2.58-5.92 5.73-5.92zm10.75 24.43c0 .14-.03.27-.1.4l-.44.6c-2.5 3.6-6.08 6.27-10.2 7.58-4.12-1.3-7.7-3.96-10.2-7.57-.16-.2-.3-.37-.44-.6-.07-.13-.1-.26-.1-.4v-3.3c0-4.5 7.16-6.8 10.74-6.8s10.75 2.3 10.75 6.8z" stroke="#000" stroke-opacity="0" stroke-width="3.77" fill="#fff"/><use xlink:href="#b" transform="matrix(1,0,0,1,1190,489) translate(34.599999999999994 14.4)"/><path d="M1070.47 298.26l.15 1.82.42 1.76.7 1.67.94 1.55 1.17 1.37 1.38 1.18 1.54.94 1.67.7 1.76.42 1.82.14h166l1.93.15 1.9.46 1.8.76 1.68 1.02 1.5 1.27 1.26 1.5 1.02 1.66.75 1.82.45 1.9.15 1.94v61.38h-.94v-61.35l-.15-1.83-.42-1.76-.7-1.66-.94-1.54-1.17-1.37-1.38-1.18-1.54-.94-1.67-.68-1.76-.43-1.82-.15h-166l-1.93-.15-1.9-.46-1.8-.75-1.68-1.03-1.5-1.27-1.26-1.5-1.02-1.66-.75-1.8-.45-1.9-.15-1.95v-13.4h.94zm0-34.97h-.94v-42.27h.94z" stroke="#333" stroke-width=".05" fill="#333"/><path d="M1070.47 221.04h-.94v-.5h.94z" fill="#333"/><path stroke="#333" stroke-width=".05" fill="#333"/><path d="M1260 398.4l-4.63-14.26h9.27z" fill="#333"/><path d="M1260 399.94l-5.3-16.28h10.6zm-3.98-15.33l3.98 12.26 3.98-12.25z" stroke="#333" stroke-width=".05" fill="#333"/><use xlink:href="#c" transform="matrix(1,0,0,1,1042.0499999999997,263.2930595420242) translate(0.004999999999999005 14.4)"/><path d="M469.73 142.2c-.8.1-1.43.25-2.07.57l-27.54 13.57c-1.5.7-2.54 1.98-2.85 3.65l-6.83 30.54c-.32 1.43-.08 2.86.7 4.13.1.16.17.24.33.4l19.05 24.44c1.03 1.36 2.46 2.07 4.13 2.07h30.63c1.67 0 3.1-.7 4.13-2.06l19.05-24.44c1.04-1.34 1.43-2.93 1.04-4.6L502.65 160c-.32-1.68-1.35-2.95-2.86-3.66l-27.54-13.57c-.87-.4-1.66-.64-2.53-.56z" stroke="#000" stroke-opacity="0" stroke-width="3.83" fill="#1071e5"/><path d="M469.7 140c-.82.08-1.5.25-2.17.6l-29.07 14.3c-1.6.77-2.68 2.1-3 3.87l-7.22 32.25c-.33 1.5-.08 3.02.76 4.36.08.16.16.25.33.42l20.1 25.8c1.1 1.42 2.6 2.18 4.37 2.18h32.33c1.76 0 3.27-.76 4.36-2.18l20.1-25.8c1.08-1.43 1.5-3.1 1.08-4.78l-7.2-32.25c-.34-1.76-1.42-3.1-3.02-3.86l-29.07-14.3c-.93-.43-1.77-.68-2.7-.6zm0 2.26c.93-.08 1.7.1 2.53.5l27.64 13.58c1.43.75 2.43 2 2.85 3.68l6.8 30.5c.32 1.67 0 3.18-1.02 4.52l-19.1 24.47c-1 1.35-2.43 2.1-4.1 2.1h-30.67c-1.67 0-3.1-.75-4.1-2.1l-19.1-24.46c-.1-.08-.17-.25-.25-.42-.84-1.25-1.1-2.6-.76-4.1l6.8-30.5c.4-1.67 1.33-2.93 2.83-3.68l27.65-13.58c.67-.33 1.26-.5 2-.58z" stroke="#000" stroke-opacity="0" stroke-width="3.83" fill="#fff"/><path d="M462.82 211.26c0 .95.15 1.65.44 2.1.28.47.72.7 1.3.7.42 0 .76-.12 1.03-.35.27-.22.44-.57.5-1.05l1.17.08c-.1.7-.38 1.24-.86 1.65-.46.4-1.06.6-1.8.6-.97 0-1.7-.3-2.22-.93-.5-.64-.76-1.56-.76-2.77 0-1.2.25-2.12.76-2.74.5-.63 1.25-.95 2.2-.95.72 0 1.3.18 1.77.56.46.38.76.9.88 1.56l-1.18.1c-.07-.4-.22-.72-.46-.95-.25-.24-.6-.35-1.05-.35-.6 0-1.05.2-1.32.62s-.4 1.13-.4 2.12zM468.52 214.86v-5.47c0-.52 0-1.07-.04-1.68h1.1l.04 1.46h.03c.18-.6.4-1.03.63-1.25.24-.23.58-.34 1-.34.17 0 .32 0 .48.06v1.1c-.15-.06-.36-.08-.6-.08-.5 0-.86.2-1.1.64-.26.42-.4 1.03-.4 1.82v3.72zM477.25 213.7c-.22.47-.5.8-.85 1-.36.2-.8.3-1.3.3-.9 0-1.53-.32-1.95-.92-.4-.6-.6-1.53-.6-2.76 0-2.5.84-3.73 2.54-3.73.5 0 .95.1 1.3.3.35.2.63.5.85.93v-3.76h1.14v8.3c0 .76 0 1.25.04 1.5h-1.1c-.02-.08-.03-.25-.05-.5l-.03-.66zm-3.5-2.42c0 1 .13 1.72.38 2.14.26.44.67.66 1.25.66.66 0 1.13-.24 1.42-.7.3-.47.44-1.2.44-2.18 0-.94-.14-1.63-.44-2.07-.3-.44-.76-.67-1.4-.67-.58 0-1 .23-1.27.68-.25.43-.38 1.15-.38 2.14z" stroke="#000" stroke-opacity="0" fill="#fff"/><path d="M489.75 176.4h-3.2v-8.83c0-2.46-1.94-4.46-4.32-4.46h-8.56v-3.28c0-3.07-2.43-5.53-5.36-5.53-2.96 0-5.35 2.45-5.35 5.5v3.3h-8.6c-2.35 0-4.28 2-4.28 4.47v8.4h3.2c3.2 0 5.8 2.65 5.8 5.94 0 3.3-2.6 6-5.8 6h-3.2v8.4c0 2.42 1.94 4.42 4.28 4.42h8.15v-3.3c0-3.3 2.6-6 5.8-6 3.2 0 5.77 2.7 5.77 6v3.3h8.16c2.38 0 4.32-2 4.32-4.4v-8.88h3.2c2.97 0 5.36-2.46 5.36-5.53 0-3-2.38-5.5-5.35-5.5z" stroke="#000" stroke-opacity="0" stroke-width="1.74" fill="#fff"/><use xlink:href="#d" transform="matrix(1,0,0,1,398.0749161757243,232.77777777777783) translate(-37.02499999999998 14.4)"/><path d="M469.74 402.1c-.76.1-1.37.24-1.98.54l-26.3 12.96c-1.43.68-2.42 1.9-2.72 3.5l-6.52 29.16c-.3 1.37-.07 2.73.68 3.94.08.15.16.23.3.38l18.2 23.34c.98 1.3 2.35 1.97 3.94 1.97h29.25c1.58 0 2.94-.7 3.93-1.98l18.2-23.34c.97-1.3 1.35-2.8.97-4.4l-6.5-29.1c-.32-1.58-1.3-2.8-2.74-3.48l-26.3-12.96c-.83-.38-1.6-.6-2.42-.53z" stroke="#000" stroke-opacity="0" stroke-width="3.83" fill="#326ce5"/><path d="M469.72 400c-.8.08-1.44.24-2.08.56l-27.76 13.68c-1.52.72-2.56 2-2.88 3.68l-6.88 30.8c-.32 1.44-.08 2.88.72 4.16.08.16.16.24.32.4l19.2 24.64c1.04 1.36 2.48 2.08 4.16 2.08h30.88c1.68 0 3.12-.72 4.16-2.08l19.2-24.64c1.04-1.36 1.44-2.96 1.04-4.56l-6.88-30.8c-.32-1.68-1.36-2.96-2.88-3.68l-27.76-13.68c-.88-.4-1.68-.64-2.56-.56zm0 2.16c.88-.08 1.6.08 2.4.48l26.4 12.96c1.36.72 2.32 1.92 2.72 3.52l6.48 29.12c.32 1.6 0 3.04-.96 4.32l-18.24 23.36c-.96 1.28-2.32 2-3.92 2h-29.28c-1.6 0-2.96-.72-3.92-2l-18.24-23.36c-.08-.08-.16-.24-.24-.4-.8-1.2-1.04-2.48-.72-3.92l6.48-29.12c.4-1.6 1.28-2.8 2.72-3.52l26.4-12.96c.64-.32 1.2-.48 1.92-.56z" stroke="#000" stroke-opacity="0" stroke-width="3.83" fill="#fff"/><path d="M469.22 469.6c0 .64-.23 1.14-.7 1.5-.48.33-1.13.5-1.98.5-.82 0-1.46-.13-1.9-.4-.45-.3-.74-.72-.88-1.32l.98-.2c.1.37.3.64.57.82.3.17.72.25 1.24.25.56 0 .96-.1 1.22-.27s.4-.44.4-.8c0-.26-.1-.48-.28-.65-.18-.16-.46-.3-.86-.4l-.8-.23c-.62-.16-1.07-.33-1.34-.5-.27-.15-.48-.35-.62-.58-.16-.23-.23-.52-.23-.85 0-.62.2-1.1.64-1.4.43-.35 1.06-.5 1.88-.5.73 0 1.3.13 1.74.4.42.25.7.68.8 1.26l-1 .13c-.05-.3-.2-.54-.48-.7-.26-.16-.62-.24-1.07-.24-.5 0-.86.08-1.1.23-.23.16-.35.4-.35.7 0 .2.05.36.14.5.1.1.24.22.44.3.2.1.6.22 1.2.37s1 .3 1.27.43c.25.12.46.26.6.42.15.15.27.33.35.54.08.2.12.44.12.7zM472.2 471.6c-.66 0-1.16-.18-1.5-.54-.33-.36-.5-.85-.5-1.48 0-.7.23-1.24.68-1.63.45-.37 1.18-.57 2.18-.6l1.48-.03v-.37c0-.55-.1-.95-.34-1.2-.23-.23-.6-.35-1.08-.35-.5 0-.85.1-1.07.27-.23.16-.36.44-.4.8l-1.15-.1c.2-1.2 1.07-1.83 2.65-1.83.83 0 1.46.2 1.88.6.4.38.63.95.63 1.7v2.93c0 .33.04.6.12.76.1.17.26.25.5.25.1 0 .22 0 .35-.04v.7c-.27.07-.56.1-.85.1-.4 0-.7-.1-.9-.32-.17-.23-.28-.57-.3-1.04h-.04c-.28.52-.6.9-.98 1.1-.37.22-.82.33-1.36.33zm.25-.84c.4 0 .76-.1 1.08-.28.3-.2.56-.46.74-.78.18-.33.27-.67.27-1.02v-.56l-1.2.02c-.52 0-.9.07-1.18.17-.27.1-.47.26-.6.47-.15.22-.22.5-.22.83 0 .37.1.65.3.86.18.2.45.3.8.3z" stroke="#000" stroke-opacity="0" fill="#fff"/><path d="M469.96 414.7l-17.9 8.2v12.33c0 11.38 7.62 22.04 17.9 24.62 10.3-2.58 17.92-13.24 17.92-24.62V422.9zm0 8.7c2.33 0 4.4 1.45 5.3 3.6.9 2.23.4 4.8-1.25 6.47-1.63 1.67-4.07 2.2-6.22 1.27-2.15-.9-3.55-3.03-3.55-5.42 0-3.3 2.58-5.92 5.73-5.92zm10.75 24.43c0 .14-.02.27-.1.4l-.42.6c-2.5 3.6-6.1 6.27-10.22 7.58-4.12-1.3-7.7-3.96-10.2-7.57-.15-.2-.3-.37-.44-.6-.07-.13-.1-.26-.1-.4v-3.3c0-4.5 7.16-6.8 10.74-6.8 3.6 0 10.75 2.3 10.75 6.8z" stroke="#000" stroke-opacity="0" stroke-width="3.77" fill="#fff"/><use xlink:href="#e" transform="matrix(1,0,0,1,399.9638050646132,489) translate(-20.224999999999994 14.4)"/><path d="M472.33 607.55h-.95v-36.92h.95zm-1.9-58.52h-.94V480.5h.94z" stroke="#333" stroke-width=".05" fill="#333"/><path d="M470.44 480.5h-.95v-.5h.94z" fill="#333"/><path stroke="#333" stroke-width=".05" fill="#333"/><path d="M471.85 622.3l-4.63-14.25h9.27z" fill="#333"/><path d="M471.85 623.85l-5.3-16.28h10.6zm-3.98-15.33l3.98 12.25 3.98-12.25z" stroke="#333" stroke-width=".05" fill="#333"/><use xlink:href="#c" transform="matrix(1,0,0,1,443.90269395350214,549.0340293663473) translate(0.004999999999999005 14.4)"/><path d="M470.44 383.63h-.95V276.58h.94zm0-128.65h-.95v-30.7h.94z" stroke="#333" stroke-width=".05" fill="#333"/><path d="M470.44 224.3h-.95v-.52h.94z" fill="#333"/><path stroke="#333" stroke-width=".05" fill="#333"/><path d="M469.96 398.4l-4.63-14.26h9.27z" fill="#333"/><path d="M469.96 399.94l-5.28-16.28h10.57zm-3.98-15.33l3.98 12.26 4-12.25z" stroke="#333" stroke-width=".05" fill="#333"/><use xlink:href="#c" transform="matrix(1,0,0,1,442.0138050646132,254.98156937094018) translate(0.004999999999999005 14.4)"/><path d="M716.03 182.36H510.15v-.95h205.88zm295.4-3.24h-190v-.95h190z" stroke="#333" stroke-width=".05" fill="#333"/><path d="M510.16 182.36h-.4l-.22-.95h.62z" fill="#333"/><path stroke="#333" stroke-width=".05" fill="#333"/><path d="M1026.2 178.64l-14.26 4.64V174z" fill="#333"/><path d="M1027.74 178.64l-16.28 5.3v-10.6zm-15.33 3.98l12.26-3.98-12.25-3.98z" stroke="#333" stroke-width=".05" fill="#333"/><use xlink:href="#f" transform="matrix(1,0,0,1,716.0329736288252,169.46587895042802) translate(0.005000000000002558 14.4)"/><use xlink:href="#g" transform="matrix(1,0,0,1,716.0329736288252,169.46587895042802) translate(87.45500000000001 14.4)"/><path d="M1069.77 600.37c-.76.07-1.36.22-1.97.53l-26.3 12.96c-1.43.68-2.42 1.9-2.72 3.48l-6.52 29.18c-.3 1.36-.08 2.73.68 3.94.08.15.15.22.3.38l18.2 23.34c.98 1.28 2.34 1.97 3.93 1.97h29.26c1.6 0 2.95-.7 3.94-1.97l18.2-23.34c.97-1.3 1.35-2.8.97-4.4l-6.52-29.1c-.3-1.6-1.3-2.8-2.73-3.5l-26.3-12.94c-.84-.38-1.6-.6-2.43-.53z" stroke="#000" stroke-opacity="0" stroke-width="3.83" fill="#326ce5"/><path d="M1069.76 598.25c-.8.1-1.44.25-2.08.57l-27.76 13.67c-1.52.72-2.56 2-2.88 3.67l-6.88 30.8c-.32 1.44-.08 2.88.72 4.16.08.16.16.25.32.4l19.2 24.64c1.04 1.37 2.48 2.1 4.16 2.1h30.88c1.68 0 3.12-.74 4.16-2.1l19.2-24.63c1.04-1.37 1.44-2.96 1.04-4.56l-6.88-30.8c-.32-1.68-1.36-2.96-2.88-3.68l-27.76-13.68c-.88-.4-1.68-.65-2.56-.57zm0 2.16c.88-.06 1.6.1 2.4.5l26.4 12.96c1.36.72 2.32 1.9 2.72 3.5l6.48 29.13c.32 1.6 0 3.03-.96 4.32l-18.24 23.35c-.96 1.3-2.32 2-3.92 2h-29.28c-1.6 0-2.96-.7-3.92-2l-18.24-23.35c-.08-.1-.16-.25-.24-.4-.8-1.2-1.04-2.5-.72-3.92l6.48-29.13c.4-1.6 1.28-2.8 2.72-3.5l26.4-12.98c.64-.32 1.2-.5 1.92-.56z" stroke="#000" stroke-opacity="0" stroke-width="3.83" fill="#fff"/><path d="M1071.42 629.23v3.63h17.07v-3.63zM1062.66 619.55v3.63h25.83v-3.63zM1051.5 619.55v3.63h6.48v-3.63zM1072.04 638.9v3.63h16.45v-3.63zM1062.66 648.58v3.62h25.83v-3.62zM1051.5 648.58v3.62h6.48v-3.62z" stroke="#000" stroke-opacity="0" stroke-width="3.77" fill="#fff"/><path d="M1072.54 643.05c0 1.4-1.1 2.54-2.46 2.54-1.36 0-2.46-1.15-2.46-2.55s1.1-2.54 2.46-2.54c1.36 0 2.46 1.15 2.46 2.55z" stroke="#000" stroke-opacity="0" stroke-width="3.77" fill="#326ce5"/><path d="M1060.37 632.1l4.44.06c1.67-7.06 9.67-5.75 10.58.2l4.35-.25c-1.4-11.57-17.46-13.25-19.14-1.23z" stroke="#000" stroke-opacity="0" stroke-width="3.77" fill="#fff"/><path d="M1069.98 622.2c-5.83 0-10.6 4.58-10.6 10.26 1.68-.02 5.28.08 5.85 0 0-2.3 2.08-4.23 4.75-4.23s4.75 1.94 4.75 4.23c1.02.04 5.28-.2 5.85 0 0-5.68-4.77-10.26-10.6-10.26zm0 1.2c4.98 0 8.8 3.8 9.18 8.47h-3.54c-.36-2.7-2.67-4.84-5.64-4.84-2.97 0-5.28 2.13-5.64 4.84h-3.52c.36-4.67 4.18-8.46 9.16-8.46z" stroke="#000" stroke-opacity="0" stroke-width="3.77" fill="#326ce5"/><path d="M1057.25 632.57h25.2v16.16h-25.2v-16.16z" stroke="#000" stroke-opacity="0" stroke-width="3.77" fill="#fff"/><path d="M1057.05 631.7v17.94h26.08V631.7zm1.17 1.22h23.74v15.5h-23.74z" stroke="#000" stroke-opacity="0" stroke-width="3.77" fill="#326ce5"/><path d="M1058.54 667.3c0 .64-.24 1.13-.7 1.5-.48.33-1.14.5-2 .5-.8 0-1.45-.13-1.9-.4-.43-.3-.73-.73-.86-1.32l.97-.2c.1.37.3.64.58.82.3.16.7.25 1.22.25.56 0 .97-.1 1.22-.27.27-.18.4-.44.4-.8 0-.26-.1-.48-.27-.65-.18-.16-.47-.3-.87-.4l-.8-.23c-.62-.17-1.07-.33-1.34-.5-.28-.15-.48-.35-.63-.6-.15-.2-.23-.5-.23-.83 0-.62.2-1.1.64-1.42.44-.33 1.06-.5 1.9-.5.7 0 1.3.14 1.72.4.43.27.7.7.82 1.28l-1 .13c-.05-.3-.22-.54-.48-.7-.27-.16-.63-.24-1.07-.24-.5 0-.87.08-1.1.23-.24.16-.36.4-.36.7 0 .2.06.36.16.5.1.1.24.22.43.3.18.1.58.22 1.2.37.58.15 1 .3 1.26.42.26.13.46.27.6.43.15.15.27.33.36.54.08.2.12.44.12.7zM1060.67 666c0 .8.16 1.4.47 1.83.32.42.77.63 1.38.63.47 0 .86-.1 1.14-.3.3-.2.5-.44.6-.75l.95.3c-.38 1.07-1.28 1.6-2.68 1.6-.98 0-1.73-.3-2.24-.9-.5-.6-.76-1.5-.76-2.67 0-1.12.25-2 .76-2.6.5-.6 1.25-.9 2.2-.9 1.94 0 2.9 1.22 2.9 3.63v.15zm3.58-.85c-.06-.73-.23-1.25-.53-1.57-.3-.34-.7-.5-1.26-.5-.53 0-.96.2-1.27.55-.33.37-.5.87-.5 1.52zM1067.64 665.75c0 .9.14 1.57.4 2 .3.45.7.66 1.26.66.4 0 .72-.1.98-.3.26-.23.43-.56.5-1.02l1.1.07c-.08.66-.35 1.2-.8 1.57-.47.4-1.04.6-1.74.6-.93 0-1.64-.3-2.13-.9-.47-.62-.7-1.5-.7-2.65s.23-2.02.72-2.62c.5-.6 1.2-.9 2.1-.9.68 0 1.24.18 1.68.54.45.35.73.84.85 1.48l-1.13.08c-.06-.37-.2-.68-.44-.9-.23-.22-.56-.33-1-.33-.57 0-1 .2-1.26.6-.25.4-.38 1.07-.38 2.02zM1073.08 669.18v-5.22c0-.48 0-1-.04-1.6h1.04l.05 1.4h.02c.18-.58.38-1 .6-1.2.24-.22.56-.32.97-.32.15 0 .3.02.45.06v1.04c-.14-.04-.34-.06-.58-.06-.47 0-.82.2-1.06.6-.24.4-.36 1-.36 1.75v3.55zM1078.08 666c0 .8.15 1.4.47 1.83.3.42.77.63 1.37.63.48 0 .86-.1 1.15-.3.3-.2.48-.44.58-.75l.97.3c-.4 1.07-1.3 1.6-2.7 1.6-.98 0-1.72-.3-2.23-.9-.52-.6-.78-1.5-.78-2.67 0-1.12.26-2 .77-2.6.5-.6 1.23-.9 2.18-.9 1.95 0 2.92 1.22 2.92 3.63v.15zm3.58-.85c-.06-.73-.24-1.25-.53-1.57-.3-.34-.72-.5-1.26-.5s-.96.2-1.28.55c-.32.37-.48.87-.5 1.52zM1086.74 669.13c-.36.1-.73.15-1.1.15-.9 0-1.33-.5-1.33-1.54v-4.55h-.75v-.83h.8l.33-1.53h.73v1.53h1.23v.82h-1.22v4.3c0 .32.06.55.16.7.1.12.3.18.55.18.16 0 .37-.03.64-.1z" stroke="#000" stroke-opacity="0" fill="#fff"/><path d="M1072.55 640.67c0 1.4-1.1 2.54-2.46 2.54-1.37 0-2.47-1.13-2.47-2.53s1.1-2.53 2.46-2.53c1.35 0 2.45 1.13 2.45 2.53z" stroke="#000" stroke-opacity="0" stroke-width="3.77" fill="#326ce5"/><use xlink:href="#h" transform="matrix(1,0,0,1,1000,687.254767839317) translate(42.525 14.4)"/><path d="M890 702.23a8 8 0 0 1 8-8h344a8 8 0 0 1 8 8v44a8 8 0 0 1-8 8H898a8 8 0 0 1-8-8z" stroke="#000" stroke-opacity="0" fill="#fff" fill-opacity="0"/><use xlink:href="#i" transform="matrix(1,0,0,1,895,699.2325456170948) translate(-14.03076171875 29.7900390625)"/><path d="M979.77 402.1c-.76.1-1.36.24-1.97.54l-26.3 12.96c-1.43.68-2.42 1.9-2.72 3.5l-6.52 29.16c-.3 1.37-.08 2.73.68 3.94.08.15.15.23.3.38l18.2 23.34c.98 1.3 2.34 1.97 3.93 1.97h29.26c1.6 0 2.95-.7 3.94-1.98l18.18-23.34c1-1.3 1.37-2.8 1-4.4l-6.53-29.1c-.3-1.58-1.3-2.8-2.73-3.48l-26.3-12.96c-.84-.38-1.6-.6-2.43-.53z" stroke="#000" stroke-opacity="0" stroke-width="3.83" fill="#326ce5"/><path d="M979.76 400c-.8.08-1.44.24-2.08.56l-27.76 13.68c-1.52.72-2.56 2-2.88 3.68l-6.88 30.8c-.32 1.44-.08 2.88.72 4.16.08.16.16.24.32.4l19.2 24.64c1.04 1.36 2.48 2.08 4.16 2.08h30.88c1.68 0 3.12-.72 4.16-2.08l19.2-24.64c1.04-1.36 1.44-2.96 1.04-4.56l-6.88-30.8c-.32-1.68-1.36-2.96-2.88-3.68l-27.76-13.68c-.88-.4-1.68-.64-2.56-.56zm0 2.16c.88-.08 1.6.08 2.4.48l26.4 12.96c1.36.72 2.32 1.92 2.72 3.52l6.48 29.12c.32 1.6 0 3.04-.96 4.32l-18.24 23.36c-.96 1.28-2.32 2-3.92 2h-29.28c-1.6 0-2.96-.72-3.92-2l-18.24-23.36c-.08-.08-.16-.24-.24-.4-.8-1.2-1.04-2.48-.72-3.92l6.48-29.12c.4-1.6 1.28-2.8 2.72-3.52l26.4-12.96c.64-.32 1.2-.48 1.92-.56z" stroke="#000" stroke-opacity="0" stroke-width="3.83" fill="#fff"/><path d="M981.42 430.98v3.62h17.07v-3.62zM972.66 421.3v3.62h25.83v-3.62zM961.5 421.3v3.62H968v-3.62zM982.04 440.65v3.63h16.45v-3.63zM972.66 450.32v3.63h25.83v-3.63zM961.5 450.32v3.63H968v-3.63z" stroke="#000" stroke-opacity="0" stroke-width="3.77" fill="#fff"/><path d="M982.54 444.8c0 1.4-1.1 2.53-2.46 2.53-1.36 0-2.46-1.14-2.46-2.54 0-1.4 1.1-2.54 2.46-2.54 1.36 0 2.46 1.13 2.46 2.53z" stroke="#000" stroke-opacity="0" stroke-width="3.77" fill="#326ce5"/><path d="M970.37 433.85l4.44.06c1.67-7.06 9.67-5.74 10.58.2l4.35-.25c-1.4-11.58-17.46-13.26-19.14-1.23z" stroke="#000" stroke-opacity="0" stroke-width="3.77" fill="#fff"/><path d="M979.98 423.95c-5.83 0-10.6 4.58-10.6 10.26 1.68 0 5.28.1 5.85 0 0-2.3 2.08-4.22 4.75-4.22s4.75 1.93 4.75 4.23c1.02.05 5.28-.2 5.85 0 0-5.67-4.77-10.25-10.6-10.25zm0 1.2c4.98 0 8.8 3.8 9.18 8.46h-3.54c-.36-2.7-2.67-4.83-5.64-4.83-2.97 0-5.28 2.13-5.64 4.84h-3.52c.36-4.65 4.18-8.45 9.16-8.45z" stroke="#000" stroke-opacity="0" stroke-width="3.77" fill="#326ce5"/><path d="M967.25 434.3h25.2v16.18h-25.2V434.3z" stroke="#000" stroke-opacity="0" stroke-width="3.77" fill="#fff"/><path d="M967.05 433.45v17.94h26.08v-17.95zm1.17 1.22h23.74v15.5h-23.74z" stroke="#000" stroke-opacity="0" stroke-width="3.77" fill="#326ce5"/><path d="M968.54 469.05c0 .64-.24 1.13-.7 1.48-.48.35-1.14.52-2 .52-.8 0-1.45-.14-1.9-.4-.44-.3-.73-.73-.86-1.32l.97-.2c.1.37.3.63.58.8.3.18.7.26 1.22.26.56 0 .97-.1 1.22-.27.26-.18.4-.45.4-.8 0-.27-.1-.5-.27-.66-.18-.16-.47-.3-.87-.4l-.8-.22c-.62-.17-1.07-.34-1.34-.5-.28-.16-.48-.36-.63-.6-.15-.2-.23-.5-.23-.83 0-.63.2-1.1.64-1.42.44-.33 1.06-.5 1.9-.5.7 0 1.3.14 1.72.4.43.27.7.7.82 1.28l-1 .12c-.05-.3-.22-.53-.48-.7-.27-.16-.63-.24-1.07-.24-.5 0-.87.08-1.1.24-.24.15-.36.38-.36.7 0 .2.06.35.16.48.1.12.24.23.43.32.18.1.58.2 1.2.36.58.15 1 .3 1.26.43.26.12.46.26.6.4.15.17.27.34.36.55.08.2.12.43.12.7zM970.67 467.76c0 .78.16 1.4.48 1.8.3.43.76.65 1.37.65.48 0 .86-.1 1.14-.3.3-.2.5-.44.6-.74l.96.28c-.4 1.08-1.3 1.6-2.7 1.6-.98 0-1.73-.28-2.24-.88-.5-.6-.76-1.5-.76-2.68 0-1.13.25-2 .76-2.6.5-.6 1.25-.9 2.2-.9 1.94 0 2.9 1.2 2.9 3.63v.16zm3.58-.87c-.06-.73-.23-1.25-.53-1.58-.3-.33-.7-.5-1.26-.5-.53 0-.96.2-1.27.56-.33.37-.5.87-.5 1.5zM977.64 467.5c0 .9.14 1.57.4 2 .3.45.7.66 1.26.66.4 0 .72-.1.98-.33.26-.22.43-.55.5-1l1.1.07c-.08.66-.35 1.18-.8 1.57-.47.4-1.04.58-1.74.58-.93 0-1.64-.3-2.13-.9-.47-.6-.7-1.48-.7-2.64 0-1.13.23-2 .72-2.6.5-.6 1.2-.9 2.1-.9.68 0 1.24.17 1.68.53.45.36.73.86.85 1.5l-1.13.08c-.06-.37-.2-.67-.44-.9-.23-.22-.56-.32-1-.32-.57 0-1 .2-1.26.6-.25.4-.38 1.07-.38 2zM983.08 470.93v-5.23c0-.48 0-1-.04-1.6h1.04l.05 1.4h.02c.18-.58.38-.98.6-1.2.24-.2.56-.3.98-.3.14 0 .3 0 .44.05v1.04c-.14-.05-.34-.07-.58-.07-.47 0-.82.2-1.06.6-.24.4-.36 1-.36 1.74v3.56zM988.08 467.76c0 .78.15 1.4.47 1.8.3.43.77.65 1.37.65.48 0 .86-.1 1.15-.3.3-.2.48-.44.58-.74l.97.28c-.4 1.08-1.3 1.6-2.7 1.6-.98 0-1.72-.28-2.23-.88-.52-.6-.78-1.5-.78-2.68 0-1.13.26-2 .77-2.6.5-.6 1.23-.9 2.18-.9 1.95 0 2.92 1.2 2.92 3.63v.16zm3.58-.87c-.06-.73-.24-1.25-.53-1.58-.3-.33-.72-.5-1.26-.5s-.96.2-1.28.56c-.32.37-.48.87-.5 1.5zM996.74 470.88c-.36.1-.73.15-1.1.15-.9 0-1.33-.52-1.33-1.55v-4.55h-.75v-.8h.8l.33-1.54h.73v1.5h1.24v.83h-1.23v4.3c0 .34.06.57.16.7.1.14.3.2.55.2.15 0 .37-.03.64-.1z" stroke="#000" stroke-opacity="0" fill="#fff"/><path d="M982.55 442.42c0 1.4-1.1 2.54-2.46 2.54-1.37 0-2.47-1.14-2.47-2.54 0-1.4 1.1-2.54 2.46-2.54 1.35 0 2.45 1.14 2.45 2.54z" stroke="#000" stroke-opacity="0" stroke-width="3.77" fill="#326ce5"/><use xlink:href="#j" transform="matrix(1,0,0,1,910,489) translate(53.05 14.4)"/><path d="M800 508a8 8 0 0 1 8-8h344a8 8 0 0 1 8 8v44a8 8 0 0 1-8 8H808a8 8 0 0 1-8-8z" stroke="#000" stroke-opacity="0" fill="#fff" fill-opacity="0"/><use xlink:href="#k" transform="matrix(1,0,0,1,805,505) translate(2.171875 30.6103515625)"/><path d="M471.63 626.02c-.76.08-1.37.23-1.98.53l-26.3 12.96c-1.43.7-2.42 1.9-2.72 3.5l-6.52 29.17c-.3 1.37-.06 2.73.7 3.94.07.16.14.24.3.4l18.2 23.33c.97 1.3 2.33 1.97 3.93 1.97h29.25c1.6 0 2.95-.68 3.94-1.97l18.2-23.34c.97-1.3 1.35-2.8.97-4.4l-6.53-29.1c-.3-1.6-1.28-2.8-2.72-3.5l-26.3-12.95c-.83-.38-1.6-.6-2.43-.53z" stroke="#000" stroke-opacity="0" stroke-width="3.83" fill="#326ce5"/><path d="M471.6 623.9c-.8.1-1.43.25-2.07.57l-27.76 13.68c-1.52.72-2.56 2-2.88 3.68l-6.9 30.8c-.3 1.44-.07 2.88.73 4.16.08.15.16.23.32.4l19.2 24.63c1.04 1.36 2.48 2.08 4.16 2.08h30.9c1.67 0 3.1-.7 4.15-2.07l19.2-24.64c1.04-1.37 1.44-2.97 1.04-4.57l-6.9-30.8c-.3-1.68-1.35-2.96-2.87-3.68l-27.76-13.68c-.88-.4-1.68-.64-2.56-.56zm0 2.17c.9-.08 1.6.08 2.4.48l26.4 12.96c1.37.73 2.33 1.93 2.73 3.53l6.48 29.12c.33 1.6 0 3.04-.95 4.32l-18.24 23.36c-.95 1.28-2.3 2-3.9 2h-29.3c-1.6 0-2.95-.72-3.9-2l-18.25-23.36c-.08-.08-.16-.24-.24-.4-.8-1.2-1.03-2.48-.7-3.92l6.47-29.12c.4-1.6 1.28-2.8 2.72-3.52l26.4-12.95c.63-.32 1.2-.48 1.9-.56z" stroke="#000" stroke-opacity="0" stroke-width="3.83" fill="#fff"/><path d="M473.28 654.9v3.6h17.07v-3.6zM464.5 645.2v3.63h25.85v-3.62zM453.36 645.2v3.63h6.47v-3.62zM473.9 664.56v3.63h16.44v-3.64zM464.5 674.24v3.62h25.85v-3.63zM453.36 674.24v3.62h6.47v-3.63z" stroke="#000" stroke-opacity="0" stroke-width="3.77" fill="#fff"/><path d="M474.4 668.7c0 1.4-1.1 2.54-2.47 2.54-1.36 0-2.46-1.13-2.46-2.54 0-1.4 1.1-2.53 2.46-2.53 1.36 0 2.46 1.13 2.46 2.53z" stroke="#000" stroke-opacity="0" stroke-width="3.77" fill="#326ce5"/><path d="M462.23 657.76l4.43.06c1.66-7.07 9.66-5.75 10.57.2l4.35-.26c-1.4-11.58-17.46-13.26-19.14-1.23z" stroke="#000" stroke-opacity="0" stroke-width="3.77" fill="#fff"/><path d="M471.83 647.86c-5.83 0-10.6 4.58-10.6 10.26 1.68-.02 5.28.08 5.85 0 0-2.3 2.08-4.23 4.75-4.23 2.68 0 4.75 1.92 4.75 4.22 1.02.04 5.28-.2 5.86 0 0-5.68-4.77-10.26-10.6-10.26zm0 1.2c5 0 8.8 3.8 9.2 8.46h-3.56c-.36-2.7-2.67-4.84-5.64-4.84-2.96 0-5.27 2.13-5.63 4.84h-3.52c.36-4.66 4.17-8.46 9.15-8.46z" stroke="#000" stroke-opacity="0" stroke-width="3.77" fill="#326ce5"/><path d="M459.1 658.22h25.2v16.17h-25.2V658.2z" stroke="#000" stroke-opacity="0" stroke-width="3.77" fill="#fff"/><path d="M458.9 657.36v17.94H485v-17.94zm1.17 1.22h23.74v15.5h-23.73z" stroke="#000" stroke-opacity="0" stroke-width="3.77" fill="#326ce5"/><path d="M460.4 692.96c0 .64-.25 1.13-.72 1.48-.47.35-1.13.52-1.98.52-.8 0-1.45-.14-1.9-.4-.44-.3-.73-.73-.87-1.32l.97-.2c.1.37.3.63.58.8.3.18.7.26 1.22.26.57 0 .97-.1 1.23-.26.26-.18.4-.45.4-.8 0-.27-.1-.5-.28-.65-.18-.18-.47-.32-.87-.42l-.8-.22c-.62-.17-1.07-.33-1.33-.5-.27-.16-.48-.36-.63-.6-.15-.2-.23-.5-.23-.83 0-.62.2-1.1.64-1.42.43-.32 1.06-.48 1.88-.48.73 0 1.3.13 1.73.4.44.26.7.68.82 1.27l-1 .1c-.05-.3-.2-.52-.48-.7-.28-.15-.63-.22-1.08-.22-.5 0-.87.07-1.1.23-.24.16-.36.4-.36.7 0 .2.05.37.15.5.1.1.25.22.44.3.2.1.6.22 1.2.38.6.14 1.02.28 1.27.42.27.13.47.27.62.42.15.16.27.33.35.54.08.2.12.44.12.7zM462.53 691.67c0 .78.15 1.4.47 1.8.3.43.77.65 1.37.65.48 0 .86-.1 1.15-.3.3-.2.48-.45.58-.75l.97.28c-.4 1.08-1.3 1.62-2.7 1.62-.98 0-1.73-.3-2.24-.9-.5-.6-.76-1.5-.76-2.68 0-1.13.25-2 .76-2.6.5-.6 1.25-.9 2.2-.9 1.94 0 2.9 1.2 2.9 3.62v.15zm3.57-.87c-.05-.72-.23-1.24-.52-1.57-.3-.33-.72-.5-1.27-.5-.52 0-.95.2-1.26.56-.3.36-.48.86-.5 1.5zM469.5 691.4c0 .9.13 1.58.4 2.02.28.44.7.65 1.26.65.4 0 .7-.1.97-.33.27-.22.43-.55.5-1l1.1.07c-.08.67-.35 1.2-.8 1.58-.46.4-1.04.6-1.74.6-.94 0-1.65-.3-2.13-.9-.5-.62-.73-1.5-.73-2.66 0-1.14.24-2.02.73-2.62.5-.6 1.2-.9 2.1-.9.68 0 1.24.18 1.7.54.43.36.7.86.83 1.5l-1.13.08c-.06-.38-.2-.68-.44-.9-.23-.23-.56-.33-1-.33-.57 0-1 .2-1.25.58-.26.4-.4 1.08-.4 2.02zM474.93 694.84v-5.23c0-.47 0-1-.03-1.58h1.04l.05 1.4c.18-.6.4-1 .62-1.2.22-.22.55-.32.96-.32.15 0 .3.02.45.06V689c-.15-.04-.34-.06-.6-.06-.45 0-.8.2-1.03.6-.25.4-.37 1-.37 1.74v3.56zM479.93 691.67c0 .78.16 1.4.47 1.8.3.43.77.65 1.38.65.47 0 .86-.1 1.14-.3.3-.2.48-.45.58-.75l.97.28c-.4 1.08-1.3 1.62-2.7 1.62-.97 0-1.72-.3-2.23-.9-.5-.6-.76-1.5-.76-2.68 0-1.13.25-2 .76-2.6.5-.6 1.25-.9 2.2-.9 1.94 0 2.9 1.2 2.9 3.62v.15zm3.58-.87c-.05-.72-.23-1.24-.52-1.57-.3-.33-.72-.5-1.26-.5s-.96.2-1.28.56c-.3.36-.47.86-.5 1.5zM488.6 694.8c-.37.1-.74.14-1.12.14-.88 0-1.32-.52-1.32-1.55v-4.55h-.76v-.82h.8l.33-1.53h.73v1.53h1.23v.82h-1.24v4.3c0 .33.06.56.16.7.1.13.28.2.54.2.15 0 .36-.04.64-.1z" stroke="#000" stroke-opacity="0" fill="#fff"/><path d="M474.4 666.33c0 1.4-1.1 2.54-2.46 2.54-1.36 0-2.46-1.14-2.46-2.54 0-1.4 1.1-2.54 2.46-2.54 1.36 0 2.46 1.13 2.46 2.53z" stroke="#000" stroke-opacity="0" stroke-width="3.77" fill="#326ce5"/><use xlink:href="#l" transform="matrix(1,0,0,1,401.8526939535021,712.9111108888894) translate(44.025 14.4)"/><path d="M311.85 727.47a8 8 0 0 1 8-8h344a8 8 0 0 1 8 8v44a8 8 0 0 1-8 8h-344a8 8 0 0 1-8-8z" stroke="#000" stroke-opacity="0" fill="#fff" fill-opacity="0"/><use xlink:href="#i" transform="matrix(1,0,0,1,316.8526939535021,724.4682418769219) translate(-14.03076171875 29.7900390625)"/><path d="M1167.9 570.48h-86l-1.8.14-1.74.4-1.65.7-1.52.94-1.36 1.16-1.16 1.36-.94 1.53-.68 1.66-.42 1.74-.15 1.83-.94-.08.15-1.9.45-1.88.74-1.8 1.02-1.65 1.24-1.48 1.48-1.25 1.66-1.03 1.8-.74 1.88-.45 1.9-.15h86.05zm92.57-12.46l-.15 1.93-.45 1.9-.75 1.8-1.03 1.68-1.28 1.5-1.5 1.26-1.66 1.02-1.8.75-1.9.45-1.94.15h-24.2v-.95h24.16l1.82-.14 1.76-.42 1.67-.7 1.54-.94 1.38-1.17 1.17-1.38.95-1.54.7-1.67.4-1.76.16-1.82V480.5h.94z" stroke="#333" stroke-width=".05" fill="#333"/><path d="M1260.47 480.5h-.94v-.5h.94z" fill="#333"/><path stroke="#333" stroke-width=".05" fill="#333"/><path d="M1070 596.65l-4.63-14.26h9.27z" fill="#333"/><path d="M1070 598.2l-5.3-16.3h10.6zm-3.98-15.34l3.98 12.26 3.98-12.25z" stroke="#333" stroke-width=".05" fill="#333"/><use xlink:href="#c" transform="matrix(1,0,0,1,1167.9132410803415,559.2) translate(0.004999999999999005 14.4)"/><path d="M1070.47 298.3l-.15 1.93-.45 1.9-.75 1.8-1.03 1.68-1.28 1.5-1.5 1.27-1.66 1.02-1.8.74-1.9.46-1.94.15h-66l-1.82.14-1.76.42-1.67.7-1.54.93-1.38 1.18-1.17 1.37-.95 1.54-.7 1.67-.4 1.77-.15 1.82v61.33h-.96v-61.37l.16-1.94.45-1.9.75-1.8 1.03-1.68 1.28-1.5 1.5-1.26 1.66-1.02 1.8-.75 1.9-.45 1.94-.15h66l1.82-.14 1.76-.43 1.67-.7 1.54-.93 1.38-1.18 1.17-1.37.95-1.54.7-1.66.4-1.76.16-1.82V284.9h.94zm0-35h-.94v-42.27h.94z" stroke="#333" stroke-width=".05" fill="#333"/><path d="M1070.47 221.04h-.94v-.5h.94z" fill="#333"/><path stroke="#333" stroke-width=".05" fill="#333"/><path d="M980 398.4l-4.63-14.26h9.26z" fill="#333"/><path d="M980 399.94l-5.3-16.28h10.6zm-3.98-15.33l3.98 12.26 3.98-12.25z" stroke="#333" stroke-width=".05" fill="#333"/><defs><path fill="#333" d="M67-125c0 53 21 87 73 88 37 1 54-22 65-47l45 17C233-25 199 4 140 4 58 4 20-42 15-125 8-235 124-281 211-232c18 10 29 29 36 50l-46 12c-8-25-30-41-62-41-52 0-71 34-72 86" id="m"/><path fill="#333" d="M25 0v-261h50V0H25" id="n"/><path fill="#333" d="M85 4C-2 5 27-109 22-190h50c7 57-23 150 33 157 60-5 35-97 40-157h50l1 190h-47c-2-12 1-28-3-38-12 25-28 42-61 42" id="o"/><path fill="#333" d="M137-138c1-29-70-34-71-4 15 46 118 7 119 86 1 83-164 76-172 9l43-7c4 19 20 25 44 25 33 8 57-30 24-41C81-84 22-81 20-136c-2-80 154-74 161-7" id="p"/><path fill="#333" d="M115-3C79 11 28 4 28-45v-112H4v-33h27l15-45h31v45h36v33H77v99c-1 23 16 31 38 25v30" id="q"/><path fill="#333" d="M185-48c-13 30-37 53-82 52C43 2 14-33 14-96s30-98 90-98c62 0 83 45 84 108H66c0 31 8 55 39 56 18 0 30-7 34-22zm-45-69c5-46-57-63-70-21-2 6-4 13-4 21h74" id="r"/><path fill="#333" d="M135-150c-39-12-60 13-60 57V0H25l-1-190h47c2 13-1 29 3 40 6-28 27-53 61-41v41" id="s"/><path fill="#333" d="M240-174c0 40-23 61-54 70L253 0h-59l-57-94H76V0H24v-248c93 4 217-23 216 74zM76-134c48-2 112 12 112-38 0-48-66-32-112-35v73" id="t"/><path fill="#333" d="M195-6C206 82 75 100 31 46c-4-6-6-13-8-21l49-6c3 16 16 24 34 25 40 0 42-37 40-79-11 22-30 35-61 35-53 0-70-43-70-97 0-56 18-96 73-97 30 0 46 14 59 34l2-30h47zm-90-29c32 0 41-27 41-63 0-35-9-62-40-62-32 0-39 29-40 63 0 36 9 62 39 62" id="u"/><path fill="#333" d="M25-224v-37h50v37H25zM25 0v-190h50V0H25" id="v"/><path fill="#333" d="M133-34C117-15 103 5 69 4 32 3 11-16 11-54c-1-60 55-63 116-61 1-26-3-47-28-47-18 1-26 9-28 27l-52-2c7-38 36-58 82-57s74 22 75 68l1 82c-1 14 12 18 25 15v27c-30 8-71 5-69-32zm-48 3c29 0 43-24 42-57-32 0-66-3-65 30 0 17 8 27 23 27" id="w"/><path fill="#333" d="M110-194c64 0 96 36 96 99 0 64-35 99-97 99-61 0-95-36-95-99 0-62 34-99 96-99zm-1 164c35 0 45-28 45-65 0-40-10-65-43-65-34 0-45 26-45 65 0 36 10 65 43 65" id="x"/><path fill="#333" d="M135-194c87-1 58 113 63 194h-50c-7-57 23-157-34-157-59 0-34 97-39 157H25l-1-190h47c2 12-1 28 3 38 12-26 28-41 61-42" id="y"/><g id="a"><use transform="matrix(0.05,0,0,0.05,0,0)" xlink:href="#m"/><use transform="matrix(0.05,0,0,0.05,12.950000000000001,0)" xlink:href="#n"/><use transform="matrix(0.05,0,0,0.05,17.950000000000003,0)" xlink:href="#o"/><use transform="matrix(0.05,0,0,0.05,28.900000000000006,0)" xlink:href="#p"/><use transform="matrix(0.05,0,0,0.05,38.900000000000006,0)" xlink:href="#q"/><use transform="matrix(0.05,0,0,0.05,44.85000000000001,0)" xlink:href="#r"/><use transform="matrix(0.05,0,0,0.05,54.85,0)" xlink:href="#s"/><use transform="matrix(0.05,0,0,0.05,61.85,0)" xlink:href="#t"/><use transform="matrix(0.05,0,0,0.05,74.80000000000001,0)" xlink:href="#r"/><use transform="matrix(0.05,0,0,0.05,84.80000000000001,0)" xlink:href="#u"/><use transform="matrix(0.05,0,0,0.05,95.75000000000001,0)" xlink:href="#v"/><use transform="matrix(0.05,0,0,0.05,100.75000000000001,0)" xlink:href="#p"/><use transform="matrix(0.05,0,0,0.05,110.75,0)" xlink:href="#q"/><use transform="matrix(0.05,0,0,0.05,116.7,0)" xlink:href="#s"/><use transform="matrix(0.05,0,0,0.05,123.7,0)" xlink:href="#w"/><use transform="matrix(0.05,0,0,0.05,133.70000000000002,0)" xlink:href="#q"/><use transform="matrix(0.05,0,0,0.05,139.65,0)" xlink:href="#v"/><use transform="matrix(0.05,0,0,0.05,144.65,0)" xlink:href="#x"/><use transform="matrix(0.05,0,0,0.05,155.6,0)" xlink:href="#y"/></g><path fill="#333" d="M84 4C32 4 15-41 15-95c0-55 18-99 73-99 29 0 47 12 58 34l2-30h48l-1 265h-49V-32C136-9 114 4 84 4zm21-34c32 0 41-29 41-66 0-36-9-64-40-64-33 0-39 30-40 65 0 43 13 65 39 65" id="z"/><path fill="#333" d="M14-72v-43h91v43H14" id="A"/><g id="b"><use transform="matrix(0.05,0,0,0.05,0,0)" xlink:href="#s"/><use transform="matrix(0.05,0,0,0.05,7,0)" xlink:href="#r"/><use transform="matrix(0.05,0,0,0.05,17,0)" xlink:href="#z"/><use transform="matrix(0.05,0,0,0.05,27.950000000000003,0)" xlink:href="#o"/><use transform="matrix(0.05,0,0,0.05,38.900000000000006,0)" xlink:href="#r"/><use transform="matrix(0.05,0,0,0.05,48.900000000000006,0)" xlink:href="#p"/><use transform="matrix(0.05,0,0,0.05,58.900000000000006,0)" xlink:href="#q"/><use transform="matrix(0.05,0,0,0.05,64.85000000000001,0)" xlink:href="#A"/></g><path fill="#666" d="M140-251c80 0 125 45 125 126S219 4 139 4C58 4 15-44 15-125s44-126 125-126zm-1 214c52 0 73-35 73-88 0-50-21-86-72-86-52 0-73 35-73 86s22 88 72 88" id="B"/><path fill="#666" d="M275 0h-61l-44-196L126 0H64L0-248h53L97-49l45-199h58l43 199 44-199h52" id="C"/><path fill="#666" d="M175 0L67-191c6 58 2 128 3 191H24v-248h59L193-55c-6-58-2-129-3-193h46V0h-61" id="D"/><path fill="#666" d="M169-182c-1-43-94-46-97-3 18 66 151 10 154 114 3 95-165 93-204 36-6-8-10-19-12-30l50-8c3 46 112 56 116 5-17-69-150-10-154-114-4-87 153-88 188-35 5 8 8 18 10 28" id="E"/><g id="c"><use transform="matrix(0.05,0,0,0.05,0,0)" xlink:href="#B"/><use transform="matrix(0.05,0,0,0.05,14,0)" xlink:href="#C"/><use transform="matrix(0.05,0,0,0.05,30.950000000000003,0)" xlink:href="#D"/><use transform="matrix(0.05,0,0,0.05,43.9,0)" xlink:href="#E"/></g><path fill="#333" d="M136-208V0H84v-208H4v-40h212v40h-80" id="F"/><path fill="#333" d="M147 0L96-86 75-71V0H25v-261h50v150l67-79h53l-66 74L201 0h-54" id="G"/><g id="d"><use transform="matrix(0.05,0,0,0.05,0,0)" xlink:href="#m"/><use transform="matrix(0.05,0,0,0.05,12.950000000000001,0)" xlink:href="#n"/><use transform="matrix(0.05,0,0,0.05,17.950000000000003,0)" xlink:href="#o"/><use transform="matrix(0.05,0,0,0.05,28.900000000000006,0)" xlink:href="#p"/><use transform="matrix(0.05,0,0,0.05,38.900000000000006,0)" xlink:href="#q"/><use transform="matrix(0.05,0,0,0.05,44.85000000000001,0)" xlink:href="#r"/><use transform="matrix(0.05,0,0,0.05,54.85,0)" xlink:href="#s"/><use transform="matrix(0.05,0,0,0.05,61.85,0)" xlink:href="#t"/><use transform="matrix(0.05,0,0,0.05,74.80000000000001,0)" xlink:href="#r"/><use transform="matrix(0.05,0,0,0.05,84.80000000000001,0)" xlink:href="#u"/><use transform="matrix(0.05,0,0,0.05,95.75000000000001,0)" xlink:href="#v"/><use transform="matrix(0.05,0,0,0.05,100.75000000000001,0)" xlink:href="#p"/><use transform="matrix(0.05,0,0,0.05,110.75,0)" xlink:href="#q"/><use transform="matrix(0.05,0,0,0.05,116.7,0)" xlink:href="#s"/><use transform="matrix(0.05,0,0,0.05,123.7,0)" xlink:href="#w"/><use transform="matrix(0.05,0,0,0.05,133.70000000000002,0)" xlink:href="#q"/><use transform="matrix(0.05,0,0,0.05,139.65,0)" xlink:href="#v"/><use transform="matrix(0.05,0,0,0.05,144.65,0)" xlink:href="#x"/><use transform="matrix(0.05,0,0,0.05,155.6,0)" xlink:href="#y"/><use transform="matrix(0.05,0,0,0.05,166.54999999999998,0)" xlink:href="#F"/><use transform="matrix(0.05,0,0,0.05,176.14999999999998,0)" xlink:href="#x"/><use transform="matrix(0.05,0,0,0.05,187.09999999999997,0)" xlink:href="#G"/><use transform="matrix(0.05,0,0,0.05,197.09999999999997,0)" xlink:href="#r"/><use transform="matrix(0.05,0,0,0.05,207.09999999999997,0)" xlink:href="#y"/></g><path fill="#333" d="M220-157c-53 9-28 100-34 157h-49v-107c1-27-5-49-29-50C55-147 81-57 75 0H25l-1-190h47c2 12-1 28 3 38 10-53 101-56 108 0 13-22 24-43 59-42 82 1 51 116 57 194h-49v-107c-1-25-5-48-29-50" id="H"/><path fill="#333" d="M135-194c53 0 70 44 70 98 0 56-19 98-73 100-31 1-45-17-59-34 3 33 2 69 2 105H25l-1-265h48c2 10 0 23 3 31 11-24 29-35 60-35zM114-30c33 0 39-31 40-66 0-38-9-64-40-64-56 0-55 130 0 130" id="I"/><path fill="#333" d="M190-63c-7 42-38 67-86 67-59 0-84-38-90-98-12-110 154-137 174-36l-49 2c-2-19-15-32-35-32-30 0-35 28-38 64-6 74 65 87 74 30" id="J"/><path fill="#333" d="M24 0v-248h52V0H24" id="K"/><path fill="#333" d="M24-248c120-7 223 5 221 122C244-46 201 0 124 0H24v-248zM76-40c74 7 117-18 117-86 0-67-45-88-117-82v168" id="L"/><g id="e"><use transform="matrix(0.05,0,0,0.05,0,0)" xlink:href="#v"/><use transform="matrix(0.05,0,0,0.05,5,0)" xlink:href="#H"/><use transform="matrix(0.05,0,0,0.05,21,0)" xlink:href="#I"/><use transform="matrix(0.05,0,0,0.05,31.950000000000003,0)" xlink:href="#x"/><use transform="matrix(0.05,0,0,0.05,42.900000000000006,0)" xlink:href="#s"/><use transform="matrix(0.05,0,0,0.05,49.900000000000006,0)" xlink:href="#q"/><use transform="matrix(0.05,0,0,0.05,55.85,0)" xlink:href="#A"/><use transform="matrix(0.05,0,0,0.05,61.80000000000001,0)" xlink:href="#q"/><use transform="matrix(0.05,0,0,0.05,67.75000000000001,0)" xlink:href="#x"/><use transform="matrix(0.05,0,0,0.05,78.70000000000002,0)" xlink:href="#G"/><use transform="matrix(0.05,0,0,0.05,88.70000000000002,0)" xlink:href="#r"/><use transform="matrix(0.05,0,0,0.05,98.70000000000002,0)" xlink:href="#y"/><use transform="matrix(0.05,0,0,0.05,109.65000000000003,0)" xlink:href="#A"/><use transform="matrix(0.05,0,0,0.05,115.60000000000002,0)" xlink:href="#n"/><use transform="matrix(0.05,0,0,0.05,120.60000000000002,0)" xlink:href="#x"/><use transform="matrix(0.05,0,0,0.05,131.55,0)" xlink:href="#J"/><use transform="matrix(0.05,0,0,0.05,141.55,0)" xlink:href="#w"/><use transform="matrix(0.05,0,0,0.05,151.55,0)" xlink:href="#n"/><use transform="matrix(0.05,0,0,0.05,156.55,0)" xlink:href="#A"/><use transform="matrix(0.05,0,0,0.05,162.5,0)" xlink:href="#K"/><use transform="matrix(0.05,0,0,0.05,167.5,0)" xlink:href="#L"/></g><path fill="#666" d="M240-174c0 40-23 61-54 70L253 0h-59l-57-94H76V0H24v-248c93 4 217-23 216 74zM76-134c48-2 112 12 112-38 0-48-66-32-112-35v73" id="M"/><path fill="#666" d="M24 0v-248h195v40H76v63h132v40H76v65h150V0H24" id="N"/><path fill="#666" d="M238-95c0 69-44 99-111 99C63 4 22-25 22-93v-155h51v151c-1 38 19 59 55 60 90 1 49-130 58-211h52v153" id="O"/><path fill="#666" d="M24 0v-248h52v208h133V0H24" id="P"/><path fill="#666" d="M136-208V0H84v-208H4v-40h212v40h-80" id="Q"/><g id="f"><use transform="matrix(0.05,0,0,0.05,0,0)" xlink:href="#M"/><use transform="matrix(0.05,0,0,0.05,12.950000000000001,0)" xlink:href="#N"/><use transform="matrix(0.05,0,0,0.05,24.950000000000003,0)" xlink:href="#E"/><use transform="matrix(0.05,0,0,0.05,36.95,0)" xlink:href="#O"/><use transform="matrix(0.05,0,0,0.05,49.900000000000006,0)" xlink:href="#P"/><use transform="matrix(0.05,0,0,0.05,59.5,0)" xlink:href="#Q"/><use transform="matrix(0.05,0,0,0.05,70.45,0)" xlink:href="#E"/></g><path fill="#666" d="M24 0v-248h52V0H24" id="R"/><g id="g"><use transform="matrix(0.05,0,0,0.05,0,0)" xlink:href="#R"/><use transform="matrix(0.05,0,0,0.05,5,0)" xlink:href="#D"/></g><path fill="#333" d="M169-182c-1-43-94-46-97-3 18 66 151 10 154 114 3 95-165 93-204 36-6-8-10-19-12-30l50-8c3 46 112 56 116 5-17-69-150-10-154-114-4-87 153-88 188-35 5 8 8 18 10 28" id="S"/><g id="h"><use transform="matrix(0.05,0,0,0.05,0,0)" xlink:href="#S"/><use transform="matrix(0.05,0,0,0.05,12,0)" xlink:href="#r"/><use transform="matrix(0.05,0,0,0.05,22,0)" xlink:href="#J"/><use transform="matrix(0.05,0,0,0.05,32,0)" xlink:href="#s"/><use transform="matrix(0.05,0,0,0.05,39,0)" xlink:href="#r"/><use transform="matrix(0.05,0,0,0.05,49,0)" xlink:href="#q"/></g><path fill="#333" d="M864 0L575-490l-121 84V0H173v-1484h281v850l386-448h302L762-660 1171 0H864" id="T"/><path fill="#333" d="M471 20c-247 0-336-169-336-415v-687h281v607c4 148 31 285 172 285 152 0 207-150 207-312v-580h281c4 359-9 736 8 1082H816c-7-63-11-146-12-215h-5C736-76 644 20 471 20" id="U"/><path fill="#333" d="M429-1484c1 190-1 388 0 572 54-116 155-191 317-191 300 0 386 257 386 563 0 241-73 429-226 518-49 28-106 42-169 42-162 0-251-81-306-196h-4c-1 59-5 127-15 176H140c4-67 9-153 8-236v-1248h281zm66 648c-93 114-92 466 1 585 35 45 77 79 142 79 64 0 112-31 148-92 69-115 68-440-2-561-39-68-131-111-221-70-25 11-46 32-68 59" id="V"/><path fill="#333" d="M1113-274C1038-96 884 20 626 20c-352 0-526-209-526-566 0-358 185-556 530-556 358 0 496 251 499 615H395c5 180 68 319 245 319 102 0 186-45 208-129zM857-663c-6-177-128-307-315-247-94 30-141 121-145 247h460" id="W"/><path fill="#333" d="M875-1102c70 0 148 7 206 17v237c-110-17-267-37-359 15-123 69-192 207-192 395V0H250c-10-367 32-789-52-1082h271c19 69 36 149 46 228h4c52-151 151-250 356-248" id="X"/><path fill="#333" d="M768-1103c247 0 336 167 336 416V0H824v-619c-3-164-24-273-171-273-164 0-229 142-229 312V0H143c-4-359 9-736-8-1082h268c7 63 12 146 13 215h4c67-145 160-236 348-236" id="Y"/><path fill="#333" d="M711 13c-250 0-386-99-385-349l2-556H161v-190h181l88-282h176v282h385v190H606v530c-10 130 45 186 174 184 91-2 176-11 255-27v186C933-1 833 13 711 13" id="Z"/><path fill="#333" d="M622-916c-112 2-200 14-200 111 0 90 89 101 168 121 234 58 514 77 514 368C1104-4 751 54 434 5 267-21 161-112 121-270l247-37c24 111 113 145 252 141 114-3 226-12 226-124 0-101-103-113-192-134-225-54-490-76-490-351 0-247 201-328 458-328 245 0 413 88 457 292l-249 26c-16-98-92-133-208-131" id="aa"/><path fill="#333" d="M470 0v-305h289V0H470" id="ab"/><path fill="#333" d="M794-190h353V0H118v-190h395v-702H223v-190h571v892zM513-1277v-207h281v207H513" id="ac"/><path fill="#333" d="M616-1102c361 0 521 202 521 560 0 354-171 562-527 562C259 20 92-192 92-542c0-351 169-560 524-560zm-9 930c200-2 236-165 236-370 0-199-27-367-223-367-195 0-233 146-233 367 0 129 18 223 55 282s92 88 165 88" id="ad"/><path fill="#333" d="M89 20l821-1504h228L321 20H89" id="ae"/><path fill="#333" d="M774 0H438L31-1082h297c94 290 200 568 280 872 83-304 194-581 291-872h294" id="af"/><path fill="#333" d="M1109-360C1066-122 902 20 624 20c-347 0-514-209-514-555 0-353 168-567 518-567 270 0 425 136 473 361l-283 14c-16-106-75-183-196-182-75 0-130 31-165 93s-52 152-52 270c0 249 74 374 221 374 120 0 188-82 201-201" id="ag"/><path fill="#333" d="M324-409v-244h580v244H324" id="ah"/><path fill="#333" d="M775-193C708-75 621 20 439 20 226 20 106-93 106-306c0-251 170-341 417-346l223-4c4-143-12-264-148-264-103 0-141 58-150 153l-293-14c37-219 194-321 455-321 263 0 418 130 417 390v392c1 84 5 161 89 160 21 0 42-2 62-6v152c-57 15-108 27-180 26-145 0-202-73-217-205h-6zm-256 17c168 0 234-139 227-325-166 4-347-25-347 173 0 94 33 152 120 152" id="ai"/><g id="i"><use transform="matrix(0.0087890625,0,0,0.0087890625,0,0)" xlink:href="#T"/><use transform="matrix(0.0087890625,0,0,0.0087890625,10.8017578125,0)" xlink:href="#U"/><use transform="matrix(0.0087890625,0,0,0.0087890625,21.603515625,0)" xlink:href="#V"/><use transform="matrix(0.0087890625,0,0,0.0087890625,32.4052734375,0)" xlink:href="#W"/><use transform="matrix(0.0087890625,0,0,0.0087890625,43.20703125,0)" xlink:href="#X"/><use transform="matrix(0.0087890625,0,0,0.0087890625,54.0087890625,0)" xlink:href="#Y"/><use transform="matrix(0.0087890625,0,0,0.0087890625,64.810546875,0)" xlink:href="#W"/><use transform="matrix(0.0087890625,0,0,0.0087890625,75.6123046875,0)" xlink:href="#Z"/><use transform="matrix(0.0087890625,0,0,0.0087890625,86.4140625,0)" xlink:href="#W"/><use transform="matrix(0.0087890625,0,0,0.0087890625,97.2158203125,0)" xlink:href="#aa"/><use transform="matrix(0.0087890625,0,0,0.0087890625,108.017578125,0)" xlink:href="#ab"/><use transform="matrix(0.0087890625,0,0,0.0087890625,118.8193359375,0)" xlink:href="#ac"/><use transform="matrix(0.0087890625,0,0,0.0087890625,129.62109375,0)" xlink:href="#ad"/><use transform="matrix(0.0087890625,0,0,0.0087890625,140.4228515625,0)" xlink:href="#ae"/><use transform="matrix(0.0087890625,0,0,0.0087890625,151.224609375,0)" xlink:href="#aa"/><use transform="matrix(0.0087890625,0,0,0.0087890625,162.0263671875,0)" xlink:href="#W"/><use transform="matrix(0.0087890625,0,0,0.0087890625,172.828125,0)" xlink:href="#X"/><use transform="matrix(0.0087890625,0,0,0.0087890625,183.6298828125,0)" xlink:href="#af"/><use transform="matrix(0.0087890625,0,0,0.0087890625,194.431640625,0)" xlink:href="#ac"/><use transform="matrix(0.0087890625,0,0,0.0087890625,205.2333984375,0)" xlink:href="#ag"/><use transform="matrix(0.0087890625,0,0,0.0087890625,216.03515625,0)" xlink:href="#W"/><use transform="matrix(0.0087890625,0,0,0.0087890625,226.8369140625,0)" xlink:href="#ah"/><use transform="matrix(0.0087890625,0,0,0.0087890625,237.638671875,0)" xlink:href="#ai"/><use transform="matrix(0.0087890625,0,0,0.0087890625,248.4404296875,0)" xlink:href="#ag"/><use transform="matrix(0.0087890625,0,0,0.0087890625,259.2421875,0)" xlink:href="#ag"/><use transform="matrix(0.0087890625,0,0,0.0087890625,270.0439453125,0)" xlink:href="#ad"/><use transform="matrix(0.0087890625,0,0,0.0087890625,280.845703125,0)" xlink:href="#U"/><use transform="matrix(0.0087890625,0,0,0.0087890625,291.6474609375,0)" xlink:href="#Y"/><use transform="matrix(0.0087890625,0,0,0.0087890625,302.44921875,0)" xlink:href="#Z"/><use transform="matrix(0.0087890625,0,0,0.0087890625,313.2509765625,0)" xlink:href="#ah"/><use transform="matrix(0.0087890625,0,0,0.0087890625,324.052734375,0)" xlink:href="#Z"/><use transform="matrix(0.0087890625,0,0,0.0087890625,334.8544921875,0)" xlink:href="#ad"/><use transform="matrix(0.0087890625,0,0,0.0087890625,345.65625,0)" xlink:href="#T"/><use transform="matrix(0.0087890625,0,0,0.0087890625,356.4580078125,0)" xlink:href="#W"/><use transform="matrix(0.0087890625,0,0,0.0087890625,367.259765625,0)" xlink:href="#Y"/></g><g id="j"><use transform="matrix(0.05,0,0,0.05,0,0)" xlink:href="#J"/><use transform="matrix(0.05,0,0,0.05,10,0)" xlink:href="#A"/><use transform="matrix(0.05,0,0,0.05,15.949999999999998,0)" xlink:href="#K"/><use transform="matrix(0.05,0,0,0.05,20.95,0)" xlink:href="#L"/></g><path fill="#333" d="M844-1321c-130 0-195 53-191 182v57h443v190H653V0H373v-892H117v-190h256v-83c5-247 162-348 422-349 120-1 232 13 327 28v184c-84-10-183-19-278-19" id="aj"/><path fill="#333" d="M794-190h353V0H118v-190h395v-1104H223v-190h571v1294" id="ak"/><path fill="#333" d="M1108-33c-3 314-178 467-492 467-243 0-400-94-447-291l281-33c17 79 82 141 174 141 176 0 212-155 205-347-2-40 5-80 0-115C773-85 665-12 501-12c-288 0-377-242-377-538 0-242 65-426 223-510 50-26 108-39 175-39 160 0 253 78 307 191h5c1-58 5-125 14-174h266c-12 335-3 703-6 1049zM811-384c25-82 27-259 1-342-30-99-77-180-190-180-172 0-205 171-205 356 0 116 18 202 54 258 48 76 129 107 221 70 62-25 96-86 119-162" id="al"/><path fill="#333" d="M802-909c-3-189-2-383-2-575h281v1248c-1 83 4 168 8 236H817c-9-50-14-117-15-176h-4C735-49 651 20 482 20 191 20 97-238 97-539c0-243 66-432 221-519 50-28 108-42 175-42 162 2 253 78 309 191zm-70 658c91-113 93-462 2-584-46-61-145-100-224-53-96 56-119 190-120 349 0 123 17 214 52 275 46 82 130 115 222 74 25-12 46-33 68-61" id="am"/><g id="k"><use transform="matrix(0.0087890625,0,0,0.0087890625,0,0)" xlink:href="#aj"/><use transform="matrix(0.0087890625,0,0,0.0087890625,10.8017578125,0)" xlink:href="#ak"/><use transform="matrix(0.0087890625,0,0,0.0087890625,21.603515625,0)" xlink:href="#W"/><use transform="matrix(0.0087890625,0,0,0.0087890625,32.4052734375,0)" xlink:href="#W"/><use transform="matrix(0.0087890625,0,0,0.0087890625,43.20703125,0)" xlink:href="#Z"/><use transform="matrix(0.0087890625,0,0,0.0087890625,54.0087890625,0)" xlink:href="#ab"/><use transform="matrix(0.0087890625,0,0,0.0087890625,64.810546875,0)" xlink:href="#ag"/><use transform="matrix(0.0087890625,0,0,0.0087890625,75.6123046875,0)" xlink:href="#ai"/><use transform="matrix(0.0087890625,0,0,0.0087890625,86.4140625,0)" xlink:href="#Z"/><use transform="matrix(0.0087890625,0,0,0.0087890625,97.2158203125,0)" xlink:href="#Z"/><use transform="matrix(0.0087890625,0,0,0.0087890625,108.017578125,0)" xlink:href="#ak"/><use transform="matrix(0.0087890625,0,0,0.0087890625,118.8193359375,0)" xlink:href="#W"/><use transform="matrix(0.0087890625,0,0,0.0087890625,129.62109375,0)" xlink:href="#ab"/><use transform="matrix(0.0087890625,0,0,0.0087890625,140.4228515625,0)" xlink:href="#ac"/><use transform="matrix(0.0087890625,0,0,0.0087890625,151.224609375,0)" xlink:href="#ad"/><use transform="matrix(0.0087890625,0,0,0.0087890625,162.0263671875,0)" xlink:href="#ae"/><use transform="matrix(0.0087890625,0,0,0.0087890625,172.828125,0)" xlink:href="#ai"/><use transform="matrix(0.0087890625,0,0,0.0087890625,183.6298828125,0)" xlink:href="#al"/><use transform="matrix(0.0087890625,0,0,0.0087890625,194.431640625,0)" xlink:href="#W"/><use transform="matrix(0.0087890625,0,0,0.0087890625,205.2333984375,0)" xlink:href="#Y"/><use transform="matrix(0.0087890625,0,0,0.0087890625,216.03515625,0)" xlink:href="#Z"/><use transform="matrix(0.0087890625,0,0,0.0087890625,226.8369140625,0)" xlink:href="#ah"/><use transform="matrix(0.0087890625,0,0,0.0087890625,237.638671875,0)" xlink:href="#ag"/><use transform="matrix(0.0087890625,0,0,0.0087890625,248.4404296875,0)" xlink:href="#X"/><use transform="matrix(0.0087890625,0,0,0.0087890625,259.2421875,0)" xlink:href="#W"/><use transform="matrix(0.0087890625,0,0,0.0087890625,270.0439453125,0)" xlink:href="#am"/><use transform="matrix(0.0087890625,0,0,0.0087890625,280.845703125,0)" xlink:href="#W"/><use transform="matrix(0.0087890625,0,0,0.0087890625,291.6474609375,0)" xlink:href="#Y"/><use transform="matrix(0.0087890625,0,0,0.0087890625,302.44921875,0)" xlink:href="#Z"/><use transform="matrix(0.0087890625,0,0,0.0087890625,313.2509765625,0)" xlink:href="#ac"/><use transform="matrix(0.0087890625,0,0,0.0087890625,324.052734375,0)" xlink:href="#ai"/><use transform="matrix(0.0087890625,0,0,0.0087890625,334.8544921875,0)" xlink:href="#ak"/></g><path fill="#333" d="M185-189c-5-48-123-54-124 2 14 75 158 14 163 119 3 78-121 87-175 55-17-10-28-26-33-46l33-7c5 56 141 63 141-1 0-78-155-14-162-118-5-82 145-84 179-34 5 7 8 16 11 25" id="an"/><path fill="#333" d="M100-194c63 0 86 42 84 106H49c0 40 14 67 53 68 26 1 43-12 49-29l28 8c-11 28-37 45-77 45C44 4 14-33 15-96c1-61 26-98 85-98zm52 81c6-60-76-77-97-28-3 7-6 17-6 28h103" id="ao"/><path fill="#333" d="M96-169c-40 0-48 33-48 73s9 75 48 75c24 0 41-14 43-38l32 2c-6 37-31 61-74 61-59 0-76-41-82-99-10-93 101-131 147-64 4 7 5 14 7 22l-32 3c-4-21-16-35-41-35" id="ap"/><path fill="#333" d="M114-163C36-179 61-72 57 0H25l-1-190h30c1 12-1 29 2 39 6-27 23-49 58-41v29" id="aq"/><path fill="#333" d="M59-47c-2 24 18 29 38 22v24C64 9 27 4 27-40v-127H5v-23h24l9-43h21v43h35v23H59v120" id="ar"/><g id="l"><use transform="matrix(0.05,0,0,0.05,0,0)" xlink:href="#an"/><use transform="matrix(0.05,0,0,0.05,12,0)" xlink:href="#ao"/><use transform="matrix(0.05,0,0,0.05,22,0)" xlink:href="#ap"/><use transform="matrix(0.05,0,0,0.05,31,0)" xlink:href="#aq"/><use transform="matrix(0.05,0,0,0.05,36.95,0)" xlink:href="#ao"/><use transform="matrix(0.05,0,0,0.05,46.95,0)" xlink:href="#ar"/></g></defs></g></svg>